<svg viewBox="0 0 898 400" xmlns="http://www.w3.org/2000/svg"><g><g><g><g><g><line x1="50" y1="378" x2="45" y2="378" style="visibility: inherit;" fill="rgb(0, 0, 0)" stroke="rgb(204, 204, 204)" stroke-width="1px"></line><line x1="50" y1="350.99999999999994" x2="45" y2="350.99999999999994" style="visibility: inherit;" fill="rgb(0, 0, 0)" stroke="rgb(204, 204, 204)" stroke-width="1px"></line><line x1="50" y1="323.99999999999994" x2="45" y2="323.99999999999994" style="visibility: inherit;" fill="rgb(0, 0, 0)" stroke="rgb(204, 204, 204)" stroke-width="1px"></line><line x1="50" y1="296.99999999999994" x2="45" y2="296.99999999999994" style="visibility: inherit;" fill="rgb(0, 0, 0)" stroke="rgb(204, 204, 204)" stroke-width="1px"></line><line x1="50" y1="269.99999999999994" x2="45" y2="269.99999999999994" style="visibility: inherit;" fill="rgb(0, 0, 0)" stroke="rgb(204, 204, 204)" stroke-width="1px"></line><line x1="50" y1="243.00000000000006" x2="45" y2="243.00000000000006" style="visibility: inherit;" fill="rgb(0, 0, 0)" stroke="rgb(204, 204, 204)" stroke-width="1px"></line><line x1="50" y1="216.00000000000003" x2="45" y2="216.00000000000003" style="visibility: inherit;" fill="rgb(0, 0, 0)" stroke="rgb(204, 204, 204)" stroke-width="1px"></line><line x1="50" y1="189" x2="45" y2="189" style="visibility: inherit;" fill="rgb(0, 0, 0)" stroke="rgb(204, 204, 204)" stroke-width="1px"></line><line x1="50" y1="161.99999999999997" x2="45" y2="161.99999999999997" style="visibility: inherit;" fill="rgb(0, 0, 0)" stroke="rgb(204, 204, 204)" stroke-width="1px"></line><line x1="50" y1="134.99999999999994" x2="45" y2="134.99999999999994" style="visibility: inherit;" fill="rgb(0, 0, 0)" stroke="rgb(204, 204, 204)" stroke-width="1px"></line><line x1="50" y1="107.99999999999996" x2="45" y2="107.99999999999996" style="visibility: inherit;" fill="rgb(0, 0, 0)" stroke="rgb(204, 204, 204)" stroke-width="1px"></line><line x1="50" y1="81.00000000000004" x2="45" y2="81.00000000000004" style="visibility: inherit;" fill="rgb(0, 0, 0)" stroke="rgb(204, 204, 204)" stroke-width="1px"></line><line x1="50" y1="54.00000000000006" x2="45" y2="54.00000000000006" style="visibility: inherit;" fill="rgb(0, 0, 0)" stroke="rgb(204, 204, 204)" stroke-width="1px"></line><line x1="50" y1="27.00000000000003" x2="45" y2="27.00000000000003" style="visibility: inherit;" fill="rgb(0, 0, 0)" stroke="rgb(204, 204, 204)" stroke-width="1px"></line><line x1="50" y1="0" x2="45" y2="0" style="visibility: inherit;" fill="rgb(0, 0, 0)" stroke="rgb(204, 204, 204)" stroke-width="1px"></line></g><g transform="translate(40, 0)"><text x="0" y="378" dx="0em" dy="0.3em" style="text-anchor: end; visibility: hidden; font-family: Roboto, sans-serif; font-size: 12px; font-weight: 200;" fill="rgb(50, 49, 63)" stroke="none" stroke-width="1px">0.6</text><text x="0" y="350.99999999999994" dx="0em" dy="0.3em" style="text-anchor: end; visibility: inherit; font-family: Roboto, sans-serif; font-size: 12px; font-weight: 200;" fill="rgb(50, 49, 63)" stroke="none" stroke-width="1px">0.62</text><text x="0" y="323.99999999999994" dx="0em" dy="0.3em" style="text-anchor: end; visibility: inherit; font-family: Roboto, sans-serif; font-size: 12px; font-weight: 200;" fill="rgb(50, 49, 63)" stroke="none" stroke-width="1px">0.64</text><text x="0" y="296.99999999999994" dx="0em" dy="0.3em" style="text-anchor: end; visibility: inherit; font-family: Roboto, sans-serif; font-size: 12px; font-weight: 200;" fill="rgb(50, 49, 63)" stroke="none" stroke-width="1px">0.66</text><text x="0" y="269.99999999999994" dx="0em" dy="0.3em" style="text-anchor: end; visibility: inherit; font-family: Roboto, sans-serif; font-size: 12px; font-weight: 200;" fill="rgb(50, 49, 63)" stroke="none" stroke-width="1px">0.68</text><text x="0" y="243.00000000000006" dx="0em" dy="0.3em" style="text-anchor: end; visibility: inherit; font-family: Roboto, sans-serif; font-size: 12px; font-weight: 200;" fill="rgb(50, 49, 63)" stroke="none" stroke-width="1px">0.7</text><text x="0" y="216.00000000000003" dx="0em" dy="0.3em" style="text-anchor: end; visibility: inherit; font-family: Roboto, sans-serif; font-size: 12px; font-weight: 200;" fill="rgb(50, 49, 63)" stroke="none" stroke-width="1px">0.72</text><text x="0" y="189" dx="0em" dy="0.3em" style="text-anchor: end; visibility: inherit; font-family: Roboto, sans-serif; font-size: 12px; font-weight: 200;" fill="rgb(50, 49, 63)" stroke="none" stroke-width="1px">0.74</text><text x="0" y="161.99999999999997" dx="0em" dy="0.3em" style="text-anchor: end; visibility: inherit; font-family: Roboto, sans-serif; font-size: 12px; font-weight: 200;" fill="rgb(50, 49, 63)" stroke="none" stroke-width="1px">0.76</text><text x="0" y="134.99999999999994" dx="0em" dy="0.3em" style="text-anchor: end; visibility: inherit; font-family: Roboto, sans-serif; font-size: 12px; font-weight: 200;" fill="rgb(50, 49, 63)" stroke="none" stroke-width="1px">0.78</text><text x="0" y="107.99999999999996" dx="0em" dy="0.3em" style="text-anchor: end; visibility: inherit; font-family: Roboto, sans-serif; font-size: 12px; font-weight: 200;" fill="rgb(50, 49, 63)" stroke="none" stroke-width="1px">0.8</text><text x="0" y="81.00000000000004" dx="0em" dy="0.3em" style="text-anchor: end; visibility: inherit; font-family: Roboto, sans-serif; font-size: 12px; font-weight: 200;" fill="rgb(50, 49, 63)" stroke="none" stroke-width="1px">0.82</text><text x="0" y="54.00000000000006" dx="0em" dy="0.3em" style="text-anchor: end; visibility: inherit; font-family: Roboto, sans-serif; font-size: 12px; font-weight: 200;" fill="rgb(50, 49, 63)" stroke="none" stroke-width="1px">0.84</text><text x="0" y="27.00000000000003" dx="0em" dy="0.3em" style="text-anchor: end; visibility: inherit; font-family: Roboto, sans-serif; font-size: 12px; font-weight: 200;" fill="rgb(50, 49, 63)" stroke="none" stroke-width="1px">0.86</text><text x="0" y="0" dx="0em" dy="0.3em" style="text-anchor: end; visibility: hidden; font-family: Roboto, sans-serif; font-size: 12px; font-weight: 200;" fill="rgb(50, 49, 63)" stroke="none" stroke-width="1px">0.88</text></g><line x1="50" y1="0" x2="50" y2="378" fill="rgb(0, 0, 0)" stroke="rgb(204, 204, 204)" stroke-width="1px"></line></g></g><g transform="translate(50, 0)" clip-path="url(#clip_0)"><clipPath id="clip_0"><rect width="848" height="378"></rect></clipPath><g><g><g><line x1="0" y1="0" x2="0" y2="378" fill="rgb(0, 0, 0)" stroke="rgb(60, 60, 60)" stroke-width="1px" opacity="0.25"></line><line x1="70.66666666666666" y1="0" x2="70.66666666666666" y2="378" fill="rgb(0, 0, 0)" stroke="rgb(60, 60, 60)" stroke-width="1px" opacity="0.25"></line><line x1="141.33333333333331" y1="0" x2="141.33333333333331" y2="378" fill="rgb(0, 0, 0)" stroke="rgb(60, 60, 60)" stroke-width="1px" opacity="0.25"></line><line x1="212" y1="0" x2="212" y2="378" fill="rgb(0, 0, 0)" stroke="rgb(60, 60, 60)" stroke-width="1px" opacity="0.25"></line><line x1="282.66666666666663" y1="0" x2="282.66666666666663" y2="378" fill="rgb(0, 0, 0)" stroke="rgb(60, 60, 60)" stroke-width="1px" opacity="0.25"></line><line x1="353.33333333333337" y1="0" x2="353.33333333333337" y2="378" fill="rgb(0, 0, 0)" stroke="rgb(60, 60, 60)" stroke-width="1px" opacity="0.25"></line><line x1="424" y1="0" x2="424" y2="378" fill="rgb(0, 0, 0)" stroke="rgb(60, 60, 60)" stroke-width="1px" opacity="0.25"></line><line x1="494.6666666666667" y1="0" x2="494.6666666666667" y2="378" fill="rgb(0, 0, 0)" stroke="rgb(60, 60, 60)" stroke-width="1px" opacity="0.25"></line><line x1="565.3333333333333" y1="0" x2="565.3333333333333" y2="378" fill="rgb(0, 0, 0)" stroke="rgb(60, 60, 60)" stroke-width="1px" opacity="0.25"></line><line x1="636" y1="0" x2="636" y2="378" fill="rgb(0, 0, 0)" stroke="rgb(60, 60, 60)" stroke-width="1px" opacity="0.25"></line><line x1="706.6666666666667" y1="0" x2="706.6666666666667" y2="378" fill="rgb(0, 0, 0)" stroke="rgb(60, 60, 60)" stroke-width="1px" opacity="0.25"></line><line x1="777.3333333333333" y1="0" x2="777.3333333333333" y2="378" fill="rgb(0, 0, 0)" stroke="rgb(60, 60, 60)" stroke-width="1px" opacity="0.25"></line><line x1="848" y1="0" x2="848" y2="378" fill="rgb(0, 0, 0)" stroke="rgb(60, 60, 60)" stroke-width="1px" opacity="0.25"></line></g><g><line x1="0" y1="378" x2="848" y2="378" fill="rgb(0, 0, 0)" stroke="rgb(60, 60, 60)" stroke-width="1px" opacity="0.25"></line><line x1="0" y1="350.99999999999994" x2="848" y2="350.99999999999994" fill="rgb(0, 0, 0)" stroke="rgb(60, 60, 60)" stroke-width="1px" opacity="0.25"></line><line x1="0" y1="323.99999999999994" x2="848" y2="323.99999999999994" fill="rgb(0, 0, 0)" stroke="rgb(60, 60, 60)" stroke-width="1px" opacity="0.25"></line><line x1="0" y1="296.99999999999994" x2="848" y2="296.99999999999994" fill="rgb(0, 0, 0)" stroke="rgb(60, 60, 60)" stroke-width="1px" opacity="0.25"></line><line x1="0" y1="269.99999999999994" x2="848" y2="269.99999999999994" fill="rgb(0, 0, 0)" stroke="rgb(60, 60, 60)" stroke-width="1px" opacity="0.25"></line><line x1="0" y1="243.00000000000006" x2="848" y2="243.00000000000006" fill="rgb(0, 0, 0)" stroke="rgb(60, 60, 60)" stroke-width="1px" opacity="0.25"></line><line x1="0" y1="216.00000000000003" x2="848" y2="216.00000000000003" fill="rgb(0, 0, 0)" stroke="rgb(60, 60, 60)" stroke-width="1px" opacity="0.25"></line><line x1="0" y1="189" x2="848" y2="189" fill="rgb(0, 0, 0)" stroke="rgb(60, 60, 60)" stroke-width="1px" opacity="0.25"></line><line x1="0" y1="161.99999999999997" x2="848" y2="161.99999999999997" fill="rgb(0, 0, 0)" stroke="rgb(60, 60, 60)" stroke-width="1px" opacity="0.25"></line><line x1="0" y1="134.99999999999994" x2="848" y2="134.99999999999994" fill="rgb(0, 0, 0)" stroke="rgb(60, 60, 60)" stroke-width="1px" opacity="0.25"></line><line x1="0" y1="107.99999999999996" x2="848" y2="107.99999999999996" fill="rgb(0, 0, 0)" stroke="rgb(60, 60, 60)" stroke-width="1px" opacity="0.25"></line><line x1="0" y1="81.00000000000004" x2="848" y2="81.00000000000004" fill="rgb(0, 0, 0)" stroke="rgb(60, 60, 60)" stroke-width="1px" opacity="0.25"></line><line x1="0" y1="54.00000000000006" x2="848" y2="54.00000000000006" fill="rgb(0, 0, 0)" stroke="rgb(60, 60, 60)" stroke-width="1px" opacity="0.25"></line><line x1="0" y1="27.00000000000003" x2="848" y2="27.00000000000003" fill="rgb(0, 0, 0)" stroke="rgb(60, 60, 60)" stroke-width="1px" opacity="0.25"></line><line x1="0" y1="0" x2="848" y2="0" fill="rgb(0, 0, 0)" stroke="rgb(60, 60, 60)" stroke-width="1px" opacity="0.25"></line></g></g></g><g><g><line x1="0" y1="1188" x2="848" y2="1188" fill="rgb(0, 0, 0)" stroke="rgb(153, 153, 153)" stroke-width="1.5px"></line></g></g><g><g><line x1="70.66666666666666" y1="0" x2="70.66666666666666" y2="378" fill="rgb(0, 0, 0)" stroke="rgb(153, 153, 153)" stroke-width="1.5px"></line></g></g><g><g><g><g><g><path stroke="rgb(51, 187, 238)" stroke-width="2px" d="M84.80000000000001,387.58342015743256L98.93333333333334,346.82821977138514L113.06666666666666,321.9816838502884L127.19999999999999,301.0885362625122L141.33333333333331,288.80849826335907L155.46666666666667,275.4399125576019L169.60000000000002,266.4447491168976L183.73333333333335,256.3800280094147L197.86666666666667,247.74776744842526L212,241.3308237791061L226.13333333333333,234.60834968090055L240.26666666666665,231.36169660091397L254.39999999999998,226.51078748703L268.5333333333333,221.8699758052826L282.66666666666663,217.45833206176758L296.79999999999995,212.97032582759857L310.93333333333334,213.31407773494718L325.06666666666666,207.20266449451444L339.20000000000005,203.3448700904846L353.33333333333337,200.95767724514008L367.4666666666667,198.99051833152768L381.6,196.62239599227902L395.73333333333335,192.01980578899384L409.8666666666667,191.9242923259735L424,186.23307394981384L438.1333333333334,190.32003629207608L452.26666666666665,185.0490127801895L466.40000000000003,184.3805794715881L480.5333333333333,182.03152763843534L494.6666666666667,183.4065352678299L508.79999999999995,176.72228264808655L522.9333333333334,177.86812233924863L537.0666666666666,176.72228264808655L551.2,174.96522116661072L565.3333333333333,172.80719625949857L579.4666666666667,171.06928575038907L593.5999999999999,171.1265777349472L607.7333333333333,170.17168450355527L621.8666666666667,165.72181928157806L636,167.47880029678342L650.1333333333333,162.83798861503598L664.2666666666667,163.79288184642792L678.4000000000001,161.65392744541168L692.5333333333333,160.27891981601715L706.6666666666667,160.8709101676941L720.8,160.43164479732513L734.9333333333334,160.08789288997647L749.0666666666666,158.00623047351837L763.2,158.71288526058197" style="fill: none;" fill="none"></path></g><g><path stroke="rgb(0, 153, 136)" stroke-width="2px" d="M70.66666666666666,464.83482170104975L84.80000000000001,343.7152211666107L98.93333333333334,304.58342778682703L113.06666666666666,280.04250276088715L127.19999999999999,259.98958396911615L141.33333333333331,246.86923670768738L155.46666666666667,237.43480789661405L169.60000000000002,227.0073448419571L183.73333333333335,223.66517829895017L197.86666666666667,215.1665722131729L212,206.6106741428375L226.13333333333333,203.3257995843887L240.26666666666665,200.537482380867L254.39999999999998,195.85844922065735L268.5333333333333,189.26962959766388L282.66666666666663,189.07868313789368L296.79999999999995,184.01767659187317L310.93333333333334,184.66703939437863L325.06666666666666,179.9307142496109L339.20000000000005,177.9445652961731L353.33333333333337,175.7482384443283L367.4666666666667,170.2289764881134L381.6,172.08147096633908L395.73333333333335,170.55357742309567L409.8666666666667,167.6698272228241L424,165.4926513433456L438.1333333333334,163.6401568651199L452.26666666666665,162.26506876945496L466.40000000000003,159.4767515659332L480.5333333333333,155.80998408794403L494.6666666666667,158.75102627277371L508.79999999999995,156.0200010538101L522.9333333333334,156.72665584087372L537.0666666666666,153.34634828567505L551.2,151.85667622089386L565.3333333333333,150.11876571178436L579.4666666666667,149.41211092472076L593.5999999999999,149.98503077030182L607.7333333333333,148.95377504825592L621.8666666666667,148.83919107913968L636,141.67745161056519L650.1333333333333,141.56286764144897L664.2666666666667,145.91721940040588L678.4000000000001,141.19996476173398L692.5333333333333,139.5957087278366L706.6666666666667,141.54371666908264L720.8,141.19996476173398L734.9333333333334,135.58518934249878L749.0666666666666,138.6981074810028L763.2,136.92205595970154" style="fill: none;" fill="none"></path></g><g><path stroke="rgb(0, 119, 187)" stroke-width="2px" d="M70.66666666666666,432.2536264657974L84.80000000000001,296.4667950868606L98.93333333333334,250.70796060562134L113.06666666666666,218.6041717529297L127.19999999999999,200.78580129146576L141.33333333333331,184.07496857643127L155.46666666666667,172.2151254415512L169.60000000000002,157.87257599830625L183.73333333333335,149.90866827964783L197.86666666666667,142.15485799312592L212,136.63551557064054L226.13333333333333,130.06584692001343L240.26666666666665,124.33640706539151L254.39999999999998,117.74758744239806L268.5333333333333,115.36039459705353L282.66666666666663,112.8776078224182L296.79999999999995,109.42085731029509L310.93333333333334,105.50577092170715L325.06666666666666,103.34774601459502L339.20000000000005,102.24004733562468L353.33333333333337,97.56101417541502L367.4666666666667,97.21726226806642L381.6,94.2952905893326L395.73333333333335,94.27613961696626L409.8666666666667,90.05552279949187L424,90.2656202316284L438.1333333333334,89.50167346000673L452.26666666666665,86.38867485523222L466.40000000000003,84.173357963562L480.5333333333333,83.18024325370789L494.6666666666667,82.24442052841187L508.79999999999995,80.6783859729767L522.9333333333334,80.29641258716582L537.0666666666666,76.74422907829283L551.2,78.32933413982393L565.3333333333333,73.70759296417236L579.4666666666667,76.13308775424956L593.5999999999999,73.898619890213L607.7333333333333,72.1415584087372L621.8666666666667,71.74051451683046L636,71.22488665580751L650.1333333333333,70.99571871757507L664.2666666666667,70.59467482566833L678.4000000000001,68.93312680721282L692.5333333333333,67.9973040819168L706.6666666666667,69.90709054470064L720.8,70.65196681022643L734.9333333333334,67.50074672698973L749.0666666666666,63.68117380142212L763.2,65.40001380443573" style="fill: none;" fill="none"></path></g><g><path stroke="rgb(204, 51, 17)" stroke-width="2px" d="M70.66666666666666,434.0297584533691L84.80000000000001,296.5050165653229L98.93333333333334,249.3520234823227L113.06666666666666,221.60258638858792L127.19999999999999,199.5635186433792L141.33333333333331,185.10630476474762L155.46666666666667,171.16471874713895L169.60000000000002,158.9420531988144L183.73333333333335,151.85667622089386L197.86666666666667,142.26944196224213L212,136.48279058933258L226.13333333333333,131.55551898479462L240.26666666666665,126.4181499481201L254.39999999999998,122.8085939884186L268.5333333333333,117.51841950416566L282.66666666666663,113.54604113101959L296.79999999999995,108.94345092773436L310.93333333333334,105.98325777053832L325.06666666666666,102.48828577995302L339.20000000000005,99.81463301181792L353.33333333333337,98.97424328327178L367.4666666666667,94.84913992881775L381.6,93.20666241645813L395.73333333333335,89.00511610507967L409.8666666666667,88.5658507347107L424,88.35575330257416L438.1333333333334,89.00511610507967L452.26666666666665,84.95637524127962L466.40000000000003,83.77223360538483L480.5333333333333,82.35900449752808L494.6666666666667,80.10546612739562L508.79999999999995,81.44233274459839L522.9333333333334,78.4056966304779L537.0666666666666,77.96651172637938L551.2,75.90391981601717L565.3333333333333,75.36914098262787L579.4666666666667,71.77873599529265L593.5999999999999,78.48213958740233L607.7333333333333,71.79780650138855L621.8666666666667,73.63123047351837L636,72.29436385631561L650.1333333333333,67.9209415912628L664.2666666666667,71.62593054771425L678.4000000000001,68.45563995838165L692.5333333333333,68.66573739051819L706.6666666666667,69.14322423934935L720.8,68.26469349861145L734.9333333333334,67.97823357582094L749.0666666666666,65.70554423332214L763.2,63.203686952590964" style="fill: none;" fill="none"></path></g><g><path stroke="rgb(238, 51, 119)" stroke-width="2px" d="M70.66666666666666,472.41675603389734L84.80000000000001,320.148340344429L98.93333333333334,275.2871071100235L113.06666666666666,244.48204386234283L127.19999999999999,222.29009020328522L141.33333333333331,206.09504628181458L155.46666666666667,192.24897372722626L169.60000000000002,180.40820109844205L183.73333333333335,170.55357742309567L197.86666666666667,161.13829958438873L212,152.56333100795746L226.13333333333333,146.45191776752472L240.26666666666665,141.37184071540833L254.39999999999998,131.861049413681L268.5333333333333,127.20116722583768L282.66666666666663,123.99265515804291L296.79999999999995,120.93702900409697L310.93333333333334,115.72321701049803L325.06666666666666,111.10155630111694L339.20000000000005,109.363565325737L353.33333333333337,104.799196600914L367.4666666666667,101.59068453311917L381.6,96.31966102123258L395.73333333333335,96.83528888225554L409.8666666666667,94.82998895645142L424,91.54519486427309L438.1333333333334,88.5658507347107L452.26666666666665,86.25502038002016L466.40000000000003,84.5552508831024L480.5333333333333,84.2114989757538L494.6666666666667,80.60202348232268L508.79999999999995,80.90755391120909L522.9333333333334,77.50809538364412L537.0666666666666,76.70600759983064L551.2,74.29966378211974L565.3333333333333,73.86039841175081L579.4666666666667,74.07049584388734L593.5999999999999,70.97656774520874L607.7333333333333,68.66573739051819L621.8666666666667,68.60844540596007L636,66.8705348968506L650.1333333333333,66.62221598625183L664.2666666666667,65.95386314392091L678.4000000000001,65.78190672397614L692.5333333333333,61.27482998371126L706.6666666666667,62.210652709007284L720.8,61.102954030036905L734.9333333333334,59.441406011581435L749.0666666666666,59.25045955181123L763.2,60.415369749069214" style="fill: none;" fill="none"></path></g><g><path stroke="rgb(255, 112, 67)" stroke-width="2px" d="M84.80000000000001,423.9078258275985L98.93333333333334,372.4768434762954L113.06666666666666,341.9391696453094L127.19999999999999,320.587605714798L141.33333333333331,302.6163493394851L155.46666666666667,287.89174604415894L169.60000000000002,276.58575224876404L183.73333333333335,265.33705043792725L197.86666666666667,254.89043641090387L212,247.136626124382L226.13333333333333,238.88625848293302L240.26666666666665,229.58556461334229L254.39999999999998,226.950052857399L268.5333333333333,218.43229579925537L282.66666666666663,212.39732551574704L296.79999999999995,209.53264582157135L310.93333333333334,203.68862199783325L325.06666666666666,196.87063443660736L339.20000000000005,195.2855293750763L353.33333333333337,191.23678851127625L367.4666666666667,186.6723393201828L381.6,181.1147754192352L395.73333333333335,178.53655564785004L409.8666666666667,177.1042560338974L424,172.61616933345795L438.1333333333334,168.51013648509976L452.26666666666665,165.28255391120908L466.40000000000003,163.98390877246857L480.5333333333333,160.56537973880768L494.6666666666667,157.92986798286438L508.79999999999995,156.32561194896698L522.9333333333334,152.88793194293973L537.0666666666666,151.18824291229248L551.2,145.2487860918045L565.3333333333333,144.14108741283417L579.4666666666667,143.98828196525574L593.5999999999999,143.31984865665436L607.7333333333333,140.22600102424622L621.8666666666667,136.2344716787338L636,134.38197720050812L650.1333333333333,133.65625190734863L664.2666666666667,134.00000381469724L678.4000000000001,129.98948442935944L692.5333333333333,128.70990979671478L706.6666666666667,127.88867104053499L720.8,124.64201796054842L734.9333333333334,123.91629266738892L749.0666666666666,120.97517001628877L763.2,122.31203663349149" style="fill: none;" fill="none"></path></g></g></g></g></g></g><g transform="translate(50, 378)" clip-path="url(#clip_1)"><clipPath id="clip_1"><rect width="848" height="22"></rect></clipPath><g><g><line x1="0" y1="0" x2="0" y2="5" style="visibility: inherit;" fill="rgb(0, 0, 0)" stroke="rgb(204, 204, 204)" stroke-width="1px"></line><line x1="70.66666666666666" y1="0" x2="70.66666666666666" y2="5" style="visibility: inherit;" fill="rgb(0, 0, 0)" stroke="rgb(204, 204, 204)" stroke-width="1px"></line><line x1="141.33333333333331" y1="0" x2="141.33333333333331" y2="5" style="visibility: inherit;" fill="rgb(0, 0, 0)" stroke="rgb(204, 204, 204)" stroke-width="1px"></line><line x1="212" y1="0" x2="212" y2="5" style="visibility: inherit;" fill="rgb(0, 0, 0)" stroke="rgb(204, 204, 204)" stroke-width="1px"></line><line x1="282.66666666666663" y1="0" x2="282.66666666666663" y2="5" style="visibility: inherit;" fill="rgb(0, 0, 0)" stroke="rgb(204, 204, 204)" stroke-width="1px"></line><line x1="353.33333333333337" y1="0" x2="353.33333333333337" y2="5" style="visibility: inherit;" fill="rgb(0, 0, 0)" stroke="rgb(204, 204, 204)" stroke-width="1px"></line><line x1="424" y1="0" x2="424" y2="5" style="visibility: inherit;" fill="rgb(0, 0, 0)" stroke="rgb(204, 204, 204)" stroke-width="1px"></line><line x1="494.6666666666667" y1="0" x2="494.6666666666667" y2="5" style="visibility: inherit;" fill="rgb(0, 0, 0)" stroke="rgb(204, 204, 204)" stroke-width="1px"></line><line x1="565.3333333333333" y1="0" x2="565.3333333333333" y2="5" style="visibility: inherit;" fill="rgb(0, 0, 0)" stroke="rgb(204, 204, 204)" stroke-width="1px"></line><line x1="636" y1="0" x2="636" y2="5" style="visibility: inherit;" fill="rgb(0, 0, 0)" stroke="rgb(204, 204, 204)" stroke-width="1px"></line><line x1="706.6666666666667" y1="0" x2="706.6666666666667" y2="5" style="visibility: inherit;" fill="rgb(0, 0, 0)" stroke="rgb(204, 204, 204)" stroke-width="1px"></line><line x1="777.3333333333333" y1="0" x2="777.3333333333333" y2="5" style="visibility: inherit;" fill="rgb(0, 0, 0)" stroke="rgb(204, 204, 204)" stroke-width="1px"></line><line x1="848" y1="0" x2="848" y2="5" style="visibility: inherit;" fill="rgb(0, 0, 0)" stroke="rgb(204, 204, 204)" stroke-width="1px"></line></g><g transform="translate(0, 8)"><text x="0" y="0" dx="0em" dy="0.95em" style="text-anchor: middle; visibility: hidden; font-family: Roboto, sans-serif; font-size: 12px; font-weight: 200;" fill="rgb(50, 49, 63)" stroke="none" stroke-width="1px">-5</text><text x="70.66666666666666" y="0" dx="0em" dy="0.95em" style="text-anchor: middle; visibility: inherit; font-family: Roboto, sans-serif; font-size: 12px; font-weight: 200;" fill="rgb(50, 49, 63)" stroke="none" stroke-width="1px">0</text><text x="141.33333333333331" y="0" dx="0em" dy="0.95em" style="text-anchor: middle; visibility: inherit; font-family: Roboto, sans-serif; font-size: 12px; font-weight: 200;" fill="rgb(50, 49, 63)" stroke="none" stroke-width="1px">5</text><text x="212" y="0" dx="0em" dy="0.95em" style="text-anchor: middle; visibility: inherit; font-family: Roboto, sans-serif; font-size: 12px; font-weight: 200;" fill="rgb(50, 49, 63)" stroke="none" stroke-width="1px">10</text><text x="282.66666666666663" y="0" dx="0em" dy="0.95em" style="text-anchor: middle; visibility: inherit; font-family: Roboto, sans-serif; font-size: 12px; font-weight: 200;" fill="rgb(50, 49, 63)" stroke="none" stroke-width="1px">15</text><text x="353.33333333333337" y="0" dx="0em" dy="0.95em" style="text-anchor: middle; visibility: inherit; font-family: Roboto, sans-serif; font-size: 12px; font-weight: 200;" fill="rgb(50, 49, 63)" stroke="none" stroke-width="1px">20</text><text x="424" y="0" dx="0em" dy="0.95em" style="text-anchor: middle; visibility: inherit; font-family: Roboto, sans-serif; font-size: 12px; font-weight: 200;" fill="rgb(50, 49, 63)" stroke="none" stroke-width="1px">25</text><text x="494.6666666666667" y="0" dx="0em" dy="0.95em" style="text-anchor: middle; visibility: inherit; font-family: Roboto, sans-serif; font-size: 12px; font-weight: 200;" fill="rgb(50, 49, 63)" stroke="none" stroke-width="1px">30</text><text x="565.3333333333333" y="0" dx="0em" dy="0.95em" style="text-anchor: middle; visibility: inherit; font-family: Roboto, sans-serif; font-size: 12px; font-weight: 200;" fill="rgb(50, 49, 63)" stroke="none" stroke-width="1px">35</text><text x="636" y="0" dx="0em" dy="0.95em" style="text-anchor: middle; visibility: inherit; font-family: Roboto, sans-serif; font-size: 12px; font-weight: 200;" fill="rgb(50, 49, 63)" stroke="none" stroke-width="1px">40</text><text x="706.6666666666667" y="0" dx="0em" dy="0.95em" style="text-anchor: middle; visibility: inherit; font-family: Roboto, sans-serif; font-size: 12px; font-weight: 200;" fill="rgb(50, 49, 63)" stroke="none" stroke-width="1px">45</text><text x="777.3333333333333" y="0" dx="0em" dy="0.95em" style="text-anchor: middle; visibility: inherit; font-family: Roboto, sans-serif; font-size: 12px; font-weight: 200;" fill="rgb(50, 49, 63)" stroke="none" stroke-width="1px">50</text><text x="848" y="0" dx="0em" dy="0.95em" style="text-anchor: middle; visibility: hidden; font-family: Roboto, sans-serif; font-size: 12px; font-weight: 200;" fill="rgb(50, 49, 63)" stroke="none" stroke-width="1px">55</text></g><line x1="0" y1="0" x2="848" y2="0" fill="rgb(0, 0, 0)" stroke="rgb(204, 204, 204)" stroke-width="1px"></line></g></g></g></g></svg>