<svg viewBox="0 0 898 400" xmlns="http://www.w3.org/2000/svg"><g><g><g><g><g><line x1="50" y1="378" x2="45" y2="378" style="visibility: inherit;" fill="rgb(0, 0, 0)" stroke="rgb(204, 204, 204)" stroke-width="1px"></line><line x1="50" y1="352.8" x2="45" y2="352.8" style="visibility: inherit;" fill="rgb(0, 0, 0)" stroke="rgb(204, 204, 204)" stroke-width="1px"></line><line x1="50" y1="327.6" x2="45" y2="327.6" style="visibility: inherit;" fill="rgb(0, 0, 0)" stroke="rgb(204, 204, 204)" stroke-width="1px"></line><line x1="50" y1="302.4" x2="45" y2="302.4" style="visibility: inherit;" fill="rgb(0, 0, 0)" stroke="rgb(204, 204, 204)" stroke-width="1px"></line><line x1="50" y1="277.20000000000005" x2="45" y2="277.20000000000005" style="visibility: inherit;" fill="rgb(0, 0, 0)" stroke="rgb(204, 204, 204)" stroke-width="1px"></line><line x1="50" y1="252.00000000000003" x2="45" y2="252.00000000000003" style="visibility: inherit;" fill="rgb(0, 0, 0)" stroke="rgb(204, 204, 204)" stroke-width="1px"></line><line x1="50" y1="226.79999999999995" x2="45" y2="226.79999999999995" style="visibility: inherit;" fill="rgb(0, 0, 0)" stroke="rgb(204, 204, 204)" stroke-width="1px"></line><line x1="50" y1="201.60000000000005" x2="45" y2="201.60000000000005" style="visibility: inherit;" fill="rgb(0, 0, 0)" stroke="rgb(204, 204, 204)" stroke-width="1px"></line><line x1="50" y1="176.4" x2="45" y2="176.4" style="visibility: inherit;" fill="rgb(0, 0, 0)" stroke="rgb(204, 204, 204)" stroke-width="1px"></line><line x1="50" y1="151.20000000000002" x2="45" y2="151.20000000000002" style="visibility: inherit;" fill="rgb(0, 0, 0)" stroke="rgb(204, 204, 204)" stroke-width="1px"></line><line x1="50" y1="126.00000000000001" x2="45" y2="126.00000000000001" style="visibility: inherit;" fill="rgb(0, 0, 0)" stroke="rgb(204, 204, 204)" stroke-width="1px"></line><line x1="50" y1="100.79999999999998" x2="45" y2="100.79999999999998" style="visibility: inherit;" fill="rgb(0, 0, 0)" stroke="rgb(204, 204, 204)" stroke-width="1px"></line><line x1="50" y1="75.60000000000002" x2="45" y2="75.60000000000002" style="visibility: inherit;" fill="rgb(0, 0, 0)" stroke="rgb(204, 204, 204)" stroke-width="1px"></line><line x1="50" y1="50.39999999999999" x2="45" y2="50.39999999999999" style="visibility: inherit;" fill="rgb(0, 0, 0)" stroke="rgb(204, 204, 204)" stroke-width="1px"></line><line x1="50" y1="25.200000000000035" x2="45" y2="25.200000000000035" style="visibility: inherit;" fill="rgb(0, 0, 0)" stroke="rgb(204, 204, 204)" stroke-width="1px"></line><line x1="50" y1="0" x2="45" y2="0" style="visibility: inherit;" fill="rgb(0, 0, 0)" stroke="rgb(204, 204, 204)" stroke-width="1px"></line></g><g transform="translate(40, 0)"><text x="0" y="378" dx="0em" dy="0.3em" style="text-anchor: end; visibility: hidden; font-family: Roboto, sans-serif; font-size: 12px; font-weight: 200;" fill="rgb(50, 49, 63)" stroke="none" stroke-width="1px">-0.4</text><text x="0" y="352.8" dx="0em" dy="0.3em" style="text-anchor: end; visibility: inherit; font-family: Roboto, sans-serif; font-size: 12px; font-weight: 200;" fill="rgb(50, 49, 63)" stroke="none" stroke-width="1px">-0.2</text><text x="0" y="327.6" dx="0em" dy="0.3em" style="text-anchor: end; visibility: inherit; font-family: Roboto, sans-serif; font-size: 12px; font-weight: 200;" fill="rgb(50, 49, 63)" stroke="none" stroke-width="1px">0</text><text x="0" y="302.4" dx="0em" dy="0.3em" style="text-anchor: end; visibility: inherit; font-family: Roboto, sans-serif; font-size: 12px; font-weight: 200;" fill="rgb(50, 49, 63)" stroke="none" stroke-width="1px">0.2</text><text x="0" y="277.20000000000005" dx="0em" dy="0.3em" style="text-anchor: end; visibility: inherit; font-family: Roboto, sans-serif; font-size: 12px; font-weight: 200;" fill="rgb(50, 49, 63)" stroke="none" stroke-width="1px">0.4</text><text x="0" y="252.00000000000003" dx="0em" dy="0.3em" style="text-anchor: end; visibility: inherit; font-family: Roboto, sans-serif; font-size: 12px; font-weight: 200;" fill="rgb(50, 49, 63)" stroke="none" stroke-width="1px">0.6</text><text x="0" y="226.79999999999995" dx="0em" dy="0.3em" style="text-anchor: end; visibility: inherit; font-family: Roboto, sans-serif; font-size: 12px; font-weight: 200;" fill="rgb(50, 49, 63)" stroke="none" stroke-width="1px">0.8</text><text x="0" y="201.60000000000005" dx="0em" dy="0.3em" style="text-anchor: end; visibility: inherit; font-family: Roboto, sans-serif; font-size: 12px; font-weight: 200;" fill="rgb(50, 49, 63)" stroke="none" stroke-width="1px">1</text><text x="0" y="176.4" dx="0em" dy="0.3em" style="text-anchor: end; visibility: inherit; font-family: Roboto, sans-serif; font-size: 12px; font-weight: 200;" fill="rgb(50, 49, 63)" stroke="none" stroke-width="1px">1.2</text><text x="0" y="151.20000000000002" dx="0em" dy="0.3em" style="text-anchor: end; visibility: inherit; font-family: Roboto, sans-serif; font-size: 12px; font-weight: 200;" fill="rgb(50, 49, 63)" stroke="none" stroke-width="1px">1.4</text><text x="0" y="126.00000000000001" dx="0em" dy="0.3em" style="text-anchor: end; visibility: inherit; font-family: Roboto, sans-serif; font-size: 12px; font-weight: 200;" fill="rgb(50, 49, 63)" stroke="none" stroke-width="1px">1.6</text><text x="0" y="100.79999999999998" dx="0em" dy="0.3em" style="text-anchor: end; visibility: inherit; font-family: Roboto, sans-serif; font-size: 12px; font-weight: 200;" fill="rgb(50, 49, 63)" stroke="none" stroke-width="1px">1.8</text><text x="0" y="75.60000000000002" dx="0em" dy="0.3em" style="text-anchor: end; visibility: inherit; font-family: Roboto, sans-serif; font-size: 12px; font-weight: 200;" fill="rgb(50, 49, 63)" stroke="none" stroke-width="1px">2</text><text x="0" y="50.39999999999999" dx="0em" dy="0.3em" style="text-anchor: end; visibility: inherit; font-family: Roboto, sans-serif; font-size: 12px; font-weight: 200;" fill="rgb(50, 49, 63)" stroke="none" stroke-width="1px">2.2</text><text x="0" y="25.200000000000035" dx="0em" dy="0.3em" style="text-anchor: end; visibility: inherit; font-family: Roboto, sans-serif; font-size: 12px; font-weight: 200;" fill="rgb(50, 49, 63)" stroke="none" stroke-width="1px">2.4</text><text x="0" y="0" dx="0em" dy="0.3em" style="text-anchor: end; visibility: hidden; font-family: Roboto, sans-serif; font-size: 12px; font-weight: 200;" fill="rgb(50, 49, 63)" stroke="none" stroke-width="1px">2.6</text></g><line x1="50" y1="0" x2="50" y2="378" fill="rgb(0, 0, 0)" stroke="rgb(204, 204, 204)" stroke-width="1px"></line></g></g><g transform="translate(50, 0)" clip-path="url(#clip_0)"><clipPath id="clip_0"><rect width="848" height="378"></rect></clipPath><g><g><g><line x1="0" y1="0" x2="0" y2="378" fill="rgb(0, 0, 0)" stroke="rgb(60, 60, 60)" stroke-width="1px" opacity="0.25"></line><line x1="70.66666666666666" y1="0" x2="70.66666666666666" y2="378" fill="rgb(0, 0, 0)" stroke="rgb(60, 60, 60)" stroke-width="1px" opacity="0.25"></line><line x1="141.33333333333331" y1="0" x2="141.33333333333331" y2="378" fill="rgb(0, 0, 0)" stroke="rgb(60, 60, 60)" stroke-width="1px" opacity="0.25"></line><line x1="212" y1="0" x2="212" y2="378" fill="rgb(0, 0, 0)" stroke="rgb(60, 60, 60)" stroke-width="1px" opacity="0.25"></line><line x1="282.66666666666663" y1="0" x2="282.66666666666663" y2="378" fill="rgb(0, 0, 0)" stroke="rgb(60, 60, 60)" stroke-width="1px" opacity="0.25"></line><line x1="353.33333333333337" y1="0" x2="353.33333333333337" y2="378" fill="rgb(0, 0, 0)" stroke="rgb(60, 60, 60)" stroke-width="1px" opacity="0.25"></line><line x1="424" y1="0" x2="424" y2="378" fill="rgb(0, 0, 0)" stroke="rgb(60, 60, 60)" stroke-width="1px" opacity="0.25"></line><line x1="494.6666666666667" y1="0" x2="494.6666666666667" y2="378" fill="rgb(0, 0, 0)" stroke="rgb(60, 60, 60)" stroke-width="1px" opacity="0.25"></line><line x1="565.3333333333333" y1="0" x2="565.3333333333333" y2="378" fill="rgb(0, 0, 0)" stroke="rgb(60, 60, 60)" stroke-width="1px" opacity="0.25"></line><line x1="636" y1="0" x2="636" y2="378" fill="rgb(0, 0, 0)" stroke="rgb(60, 60, 60)" stroke-width="1px" opacity="0.25"></line><line x1="706.6666666666667" y1="0" x2="706.6666666666667" y2="378" fill="rgb(0, 0, 0)" stroke="rgb(60, 60, 60)" stroke-width="1px" opacity="0.25"></line><line x1="777.3333333333333" y1="0" x2="777.3333333333333" y2="378" fill="rgb(0, 0, 0)" stroke="rgb(60, 60, 60)" stroke-width="1px" opacity="0.25"></line><line x1="848" y1="0" x2="848" y2="378" fill="rgb(0, 0, 0)" stroke="rgb(60, 60, 60)" stroke-width="1px" opacity="0.25"></line></g><g><line x1="0" y1="378" x2="848" y2="378" fill="rgb(0, 0, 0)" stroke="rgb(60, 60, 60)" stroke-width="1px" opacity="0.25"></line><line x1="0" y1="352.8" x2="848" y2="352.8" fill="rgb(0, 0, 0)" stroke="rgb(60, 60, 60)" stroke-width="1px" opacity="0.25"></line><line x1="0" y1="327.6" x2="848" y2="327.6" fill="rgb(0, 0, 0)" stroke="rgb(60, 60, 60)" stroke-width="1px" opacity="0.25"></line><line x1="0" y1="302.4" x2="848" y2="302.4" fill="rgb(0, 0, 0)" stroke="rgb(60, 60, 60)" stroke-width="1px" opacity="0.25"></line><line x1="0" y1="277.20000000000005" x2="848" y2="277.20000000000005" fill="rgb(0, 0, 0)" stroke="rgb(60, 60, 60)" stroke-width="1px" opacity="0.25"></line><line x1="0" y1="252.00000000000003" x2="848" y2="252.00000000000003" fill="rgb(0, 0, 0)" stroke="rgb(60, 60, 60)" stroke-width="1px" opacity="0.25"></line><line x1="0" y1="226.79999999999995" x2="848" y2="226.79999999999995" fill="rgb(0, 0, 0)" stroke="rgb(60, 60, 60)" stroke-width="1px" opacity="0.25"></line><line x1="0" y1="201.60000000000005" x2="848" y2="201.60000000000005" fill="rgb(0, 0, 0)" stroke="rgb(60, 60, 60)" stroke-width="1px" opacity="0.25"></line><line x1="0" y1="176.4" x2="848" y2="176.4" fill="rgb(0, 0, 0)" stroke="rgb(60, 60, 60)" stroke-width="1px" opacity="0.25"></line><line x1="0" y1="151.20000000000002" x2="848" y2="151.20000000000002" fill="rgb(0, 0, 0)" stroke="rgb(60, 60, 60)" stroke-width="1px" opacity="0.25"></line><line x1="0" y1="126.00000000000001" x2="848" y2="126.00000000000001" fill="rgb(0, 0, 0)" stroke="rgb(60, 60, 60)" stroke-width="1px" opacity="0.25"></line><line x1="0" y1="100.79999999999998" x2="848" y2="100.79999999999998" fill="rgb(0, 0, 0)" stroke="rgb(60, 60, 60)" stroke-width="1px" opacity="0.25"></line><line x1="0" y1="75.60000000000002" x2="848" y2="75.60000000000002" fill="rgb(0, 0, 0)" stroke="rgb(60, 60, 60)" stroke-width="1px" opacity="0.25"></line><line x1="0" y1="50.39999999999999" x2="848" y2="50.39999999999999" fill="rgb(0, 0, 0)" stroke="rgb(60, 60, 60)" stroke-width="1px" opacity="0.25"></line><line x1="0" y1="25.200000000000035" x2="848" y2="25.200000000000035" fill="rgb(0, 0, 0)" stroke="rgb(60, 60, 60)" stroke-width="1px" opacity="0.25"></line><line x1="0" y1="0" x2="848" y2="0" fill="rgb(0, 0, 0)" stroke="rgb(60, 60, 60)" stroke-width="1px" opacity="0.25"></line></g></g></g><g><g><line x1="0" y1="327.6" x2="848" y2="327.6" fill="rgb(0, 0, 0)" stroke="rgb(153, 153, 153)" stroke-width="1.5px"></line></g></g><g><g><line x1="70.66666666666666" y1="0" x2="70.66666666666666" y2="378" fill="rgb(0, 0, 0)" stroke="rgb(153, 153, 153)" stroke-width="1.5px"></line></g></g><g><g><g><g><g><path stroke="rgb(51, 187, 238)" stroke-width="2px" d="M84.80000000000001,-10.787858390808093L98.93333333333334,7.9697605133056895L113.06666666666666,21.274474239349377L127.19999999999999,29.102069950103786L141.33333333333331,35.37007055282595L155.46666666666667,41.176224803924555L169.60000000000002,44.24876174926757L183.73333333333335,47.878344154357904L197.86666666666667,49.350100135803245L212,52.84927568435671L226.13333333333333,57.131883716583275L240.26666666666665,56.622122383117684L254.39999999999998,57.37181911468505L268.5333333333333,58.843755340576195L282.66666666666663,61.11480531692506L296.79999999999995,61.31559762954713L310.93333333333334,61.488031482696556L325.06666666666666,63.12182722091676L339.20000000000005,67.04926357269288L353.33333333333337,64.96350488662722L367.4666666666667,66.09471902847292L381.6,66.50029907226562L395.73333333333335,69.02972946166994L409.8666666666667,65.02346620559692L424,68.143016910553L438.1333333333334,67.33095560073852L452.26666666666665,69.22298154830932L466.40000000000003,69.65430650711059L480.5333333333333,69.98523530960082L494.6666666666667,65.72122249603272L508.79999999999995,70.70840606689454L522.9333333333334,68.84572992324829L537.0666666666666,68.29496297836306L551.2,71.07616481781005L565.3333333333333,68.9888440132141L579.4666666666667,70.77548704147341L593.5999999999999,68.0637393951416L607.7333333333333,65.53028354644778L621.8666666666667,69.06379566192629L636,68.63457355499267L650.1333333333333,72.0775128364563L664.2666666666667,71.2758155822754L678.4000000000001,70.91655836105346L692.5333333333333,72.21518955230715L706.6666666666667,65.89305553436279L720.8,67.22241840362551L734.9333333333334,72.79692850112917L749.0666666666666,69.90523681640626L763.2,67.03220043182372" style="fill: none;" fill="none"></path></g><g><path stroke="rgb(0, 153, 136)" stroke-width="2px" d="M70.66666666666666,73.47437725067141L84.80000000000001,123.61740574836732L98.93333333333334,141.41299996376037L113.06666666666666,151.13263664245605L127.19999999999999,159.32108173370364L141.33333333333331,164.00040779113772L155.46666666666667,167.83796224594116L169.60000000000002,171.29587683677676L183.73333333333335,172.42114291191103L197.86666666666667,175.4954372406006L212,177.83923087120056L226.13333333333333,180.24152884483337L240.26666666666665,181.36601386070254L254.39999999999998,182.14513549804687L268.5333333333333,183.71626625061037L282.66666666666663,184.2510365009308L296.79999999999995,183.8461774349213L310.93333333333334,184.0469246864319L325.06666666666666,185.22817168235778L339.20000000000005,185.70283041000368L353.33333333333337,187.0433834552765L367.4666666666667,187.84901604652404L381.6,187.30563912391665L395.73333333333335,188.10921392440798L409.8666666666667,188.86883912086486L424,188.0355540275574L438.1333333333334,189.97991094589239L452.26666666666665,189.768514251709L466.40000000000003,189.53560838699346L480.5333333333333,190.93753466606142L494.6666666666667,188.7331300735474L508.79999999999995,190.51429066658025L522.9333333333334,190.51813588142394L537.0666666666666,190.277419424057L551.2,190.63449869155886L565.3333333333333,191.3931175231934L579.4666666666667,190.98702678680425L593.5999999999999,190.26999936103823L607.7333333333333,192.4753051757813L621.8666666666667,190.59999690055852L636,192.70100126266482L650.1333333333333,192.92510519027715L664.2666666666667,190.48100552558898L678.4000000000001,193.63869295120244L692.5333333333333,191.70139560699462L706.6666666666667,191.92350182533264L720.8,191.68750176429754L734.9333333333334,192.7414661407471L749.0666666666666,191.9708760738373L763.2,192.0720532894135" style="fill: none;" fill="none"></path></g><g><path stroke="rgb(0, 119, 187)" stroke-width="2px" d="M70.66666666666666,110.72947726249696L84.80000000000001,169.78090724945068L98.93333333333334,187.68609008789065L113.06666666666666,198.91240510940554L127.19999999999999,206.90609607696533L141.33333333333331,212.85601780414586L155.46666666666667,217.5817042350769L169.60000000000002,222.2633809804917L183.73333333333335,225.3370895147324L197.86666666666667,228.9162785768509L212,231.18188366889956L226.13333333333333,233.74862465858465L240.26666666666665,235.49703333377838L254.39999999999998,237.97245047092443L268.5333333333333,238.84379718303686L282.66666666666663,240.60328338146212L296.79999999999995,241.76081321239474L310.93333333333334,243.00838265419006L325.06666666666666,243.5280198812485L339.20000000000005,245.1321578979492L353.33333333333337,246.1514101982117L367.4666666666667,246.4063809871674L381.6,247.9764678239823L395.73333333333335,248.63146862983703L409.8666666666667,249.55682108402252L424,249.75066647529604L438.1333333333334,250.4810019493103L452.26666666666665,250.96922407150274L466.40000000000003,251.7006410121918L480.5333333333333,252.51893577575683L494.6666666666667,252.62399575710296L508.79999999999995,253.3460399866104L522.9333333333334,253.44622585773467L537.0666666666666,254.34497723579406L551.2,254.32410643100738L565.3333333333333,255.31128273010253L579.4666666666667,255.17163083553316L593.5999999999999,255.67948458194732L607.7333333333333,256.0901340007782L621.8666666666667,256.653780913353L636,256.7140651702881L650.1333333333333,257.0883728027344L664.2666666666667,257.31037387847897L678.4000000000001,257.9259236812592L692.5333333333333,257.71630690097805L706.6666666666667,257.6836901664734L720.8,257.96849892139437L734.9333333333334,258.410743689537L749.0666666666666,259.86810264587405L763.2,259.1395696163178" style="fill: none;" fill="none"></path></g><g><path stroke="rgb(204, 51, 17)" stroke-width="2px" d="M70.66666666666666,110.8721257209778L84.80000000000001,169.75544772148132L98.93333333333334,187.60684261322024L113.06666666666666,198.80784831047058L127.19999999999999,206.58287272453308L141.33333333333331,213.02468905448916L155.46666666666667,218.07440993785863L169.60000000000002,222.31209204196935L183.73333333333335,225.39386651515966L197.86666666666667,228.58407304286956L212,231.0561631679535L226.13333333333333,233.3457633018494L240.26666666666665,235.69623348712926L254.39999999999998,237.08344731330874L268.5333333333333,238.7999301910401L282.66666666666663,240.53087017536166L296.79999999999995,241.7113286018372L310.93333333333334,242.7130821704865L325.06666666666666,244.33052072525024L339.20000000000005,245.35629186630248L353.33333333333337,246.3665845155716L367.4666666666667,247.37578067779546L381.6,248.17893490791323L395.73333333333335,249.1382934808731L409.8666666666667,249.76174399852758L424,250.11398670673375L438.1333333333334,250.6313783884049L452.26666666666665,251.5368138313294L466.40000000000003,251.88052496910097L480.5333333333333,252.49343869686126L494.6666666666667,253.4841222524643L508.79999999999995,253.39650092124938L522.9333333333334,253.61643669605257L537.0666666666666,254.61530635356905L551.2,255.18635079860687L565.3333333333333,255.22369894981387L579.4666666666667,255.91027257442477L593.5999999999999,254.9958624601364L607.7333333333333,256.335754609108L621.8666666666667,256.05130634307864L636,256.5662121534347L650.1333333333333,257.48352870941164L664.2666666666667,257.29768917560574L678.4000000000001,258.021062707901L692.5333333333333,257.8140970230103L706.6666666666667,258.26779482364657L720.8,257.9203961849213L734.9333333333334,257.9705792427063L749.0666666666666,259.25616524219515L763.2,259.869965171814" style="fill: none;" fill="none"></path></g><g><path stroke="rgb(238, 51, 119)" stroke-width="2px" d="M70.66666666666666,83.68773350715637L84.80000000000001,157.26129326820376L98.93333333333334,175.51201972961428L113.06666666666666,187.01640686988833L127.19999999999999,195.35462007522588L141.33333333333331,201.82233903408053L155.46666666666667,207.1422613620758L169.60000000000002,211.61255643367772L183.73333333333335,215.41600713729864L197.86666666666667,218.84077177047732L212,221.90935084819793L226.13333333333333,224.64864585399633L240.26666666666665,226.95741198062896L254.39999999999998,229.5593907594681L268.5333333333333,231.15762577056884L282.66666666666663,232.86320385932925L296.79999999999995,234.21280667781832L310.93333333333334,236.33950338363653L325.06666666666666,237.50276348590853L339.20000000000005,238.35885701179507L353.33333333333337,240.04446551799774L367.4666666666667,241.4107634782791L381.6,242.49389741420745L395.73333333333335,243.3741587162018L409.8666666666667,244.10316488742828L424,244.97446653842925L438.1333333333334,246.25370643138885L452.26666666666665,246.8869201898575L466.40000000000003,247.84798357486727L480.5333333333333,248.15379831790924L494.6666666666667,249.24318072795873L508.79999999999995,249.6451333522797L522.9333333333334,251.04779562950137L537.0666666666666,251.15074524879455L551.2,251.8209391593933L565.3333333333333,252.1643198490143L579.4666666666667,252.5869480133057L593.5999999999999,253.3647854089737L607.7333333333333,253.97464249134063L621.8666666666667,254.1724983215332L636,254.64393517971038L650.1333333333333,255.14681718349456L664.2666666666667,255.5865084886551L678.4000000000001,255.7517701148987L692.5333333333333,256.65806922912594L706.6666666666667,256.013905620575L720.8,257.31573615074154L734.9333333333334,257.49995348453524L749.0666666666666,257.7467982530594L763.2,258.1478646755219" style="fill: none;" fill="none"></path></g><g><path stroke="rgb(255, 112, 67)" stroke-width="2px" d="M70.66666666666666,-21.490773582458484L84.80000000000001,99.30675587654115L98.93333333333334,128.42273769378662L113.06666666666666,143.51938161849975L127.19999999999999,153.93214831352233L141.33333333333331,161.11239609718325L155.46666666666667,167.50491557121276L169.60000000000002,172.45234022140505L183.73333333333335,176.69041285514834L197.86666666666667,180.42824707031252L212,183.96736178398132L226.13333333333333,186.98967061042788L240.26666666666665,189.99050030708318L254.39999999999998,192.17049679756167L268.5333333333333,194.4368904590607L282.66666666666663,196.63310894966125L296.79999999999995,198.5829032421112L310.93333333333334,200.5293179512024L325.06666666666666,202.33315930366516L339.20000000000005,203.88039264678957L353.33333333333337,205.25440356731414L367.4666666666667,206.61528668403628L381.6,208.380750989914L395.73333333333335,209.49888238906863L409.8666666666667,210.90122172832494L424,212.38153932094573L438.1333333333334,213.3949486970902L452.26666666666665,214.61239478588107L466.40000000000003,215.5966871738434L480.5333333333333,216.68799970149996L494.6666666666667,217.67447004318242L508.79999999999995,218.43608543872833L522.9333333333334,219.19609365463262L537.0666666666666,220.30504009723663L551.2,221.4968238830567L565.3333333333333,222.03934464454653L579.4666666666667,222.90915176868444L593.5999999999999,223.63333640098574L607.7333333333333,224.3492372989655L621.8666666666667,225.4790996074677L636,226.10605738163L650.1333333333333,226.56222603321075L664.2666666666667,227.13400647640228L678.4000000000001,227.98922882080083L692.5333333333333,228.68624911308288L706.6666666666667,229.0170652627945L720.8,229.9806746006012L734.9333333333334,230.37489924430852L749.0666666666666,230.89380047321325L763.2,231.3410920858383" style="fill: none;" fill="none"></path></g></g></g></g></g><g><g opacity="0.878756"><span fill="rgb(0, 0, 0)" stroke="none" stroke-width="1px">Alt + Scroll to Zoom</span></g></g></g><g transform="translate(50, 378)" clip-path="url(#clip_1)"><clipPath id="clip_1"><rect width="848" height="22"></rect></clipPath><g><g><line x1="0" y1="0" x2="0" y2="5" style="visibility: inherit;" fill="rgb(0, 0, 0)" stroke="rgb(204, 204, 204)" stroke-width="1px"></line><line x1="70.66666666666666" y1="0" x2="70.66666666666666" y2="5" style="visibility: inherit;" fill="rgb(0, 0, 0)" stroke="rgb(204, 204, 204)" stroke-width="1px"></line><line x1="141.33333333333331" y1="0" x2="141.33333333333331" y2="5" style="visibility: inherit;" fill="rgb(0, 0, 0)" stroke="rgb(204, 204, 204)" stroke-width="1px"></line><line x1="212" y1="0" x2="212" y2="5" style="visibility: inherit;" fill="rgb(0, 0, 0)" stroke="rgb(204, 204, 204)" stroke-width="1px"></line><line x1="282.66666666666663" y1="0" x2="282.66666666666663" y2="5" style="visibility: inherit;" fill="rgb(0, 0, 0)" stroke="rgb(204, 204, 204)" stroke-width="1px"></line><line x1="353.33333333333337" y1="0" x2="353.33333333333337" y2="5" style="visibility: inherit;" fill="rgb(0, 0, 0)" stroke="rgb(204, 204, 204)" stroke-width="1px"></line><line x1="424" y1="0" x2="424" y2="5" style="visibility: inherit;" fill="rgb(0, 0, 0)" stroke="rgb(204, 204, 204)" stroke-width="1px"></line><line x1="494.6666666666667" y1="0" x2="494.6666666666667" y2="5" style="visibility: inherit;" fill="rgb(0, 0, 0)" stroke="rgb(204, 204, 204)" stroke-width="1px"></line><line x1="565.3333333333333" y1="0" x2="565.3333333333333" y2="5" style="visibility: inherit;" fill="rgb(0, 0, 0)" stroke="rgb(204, 204, 204)" stroke-width="1px"></line><line x1="636" y1="0" x2="636" y2="5" style="visibility: inherit;" fill="rgb(0, 0, 0)" stroke="rgb(204, 204, 204)" stroke-width="1px"></line><line x1="706.6666666666667" y1="0" x2="706.6666666666667" y2="5" style="visibility: inherit;" fill="rgb(0, 0, 0)" stroke="rgb(204, 204, 204)" stroke-width="1px"></line><line x1="777.3333333333333" y1="0" x2="777.3333333333333" y2="5" style="visibility: inherit;" fill="rgb(0, 0, 0)" stroke="rgb(204, 204, 204)" stroke-width="1px"></line><line x1="848" y1="0" x2="848" y2="5" style="visibility: inherit;" fill="rgb(0, 0, 0)" stroke="rgb(204, 204, 204)" stroke-width="1px"></line></g><g transform="translate(0, 8)"><text x="0" y="0" dx="0em" dy="0.95em" style="text-anchor: middle; visibility: hidden; font-family: Roboto, sans-serif; font-size: 12px; font-weight: 200;" fill="rgb(50, 49, 63)" stroke="none" stroke-width="1px">-5</text><text x="70.66666666666666" y="0" dx="0em" dy="0.95em" style="text-anchor: middle; visibility: inherit; font-family: Roboto, sans-serif; font-size: 12px; font-weight: 200;" fill="rgb(50, 49, 63)" stroke="none" stroke-width="1px">0</text><text x="141.33333333333331" y="0" dx="0em" dy="0.95em" style="text-anchor: middle; visibility: inherit; font-family: Roboto, sans-serif; font-size: 12px; font-weight: 200;" fill="rgb(50, 49, 63)" stroke="none" stroke-width="1px">5</text><text x="212" y="0" dx="0em" dy="0.95em" style="text-anchor: middle; visibility: inherit; font-family: Roboto, sans-serif; font-size: 12px; font-weight: 200;" fill="rgb(50, 49, 63)" stroke="none" stroke-width="1px">10</text><text x="282.66666666666663" y="0" dx="0em" dy="0.95em" style="text-anchor: middle; visibility: inherit; font-family: Roboto, sans-serif; font-size: 12px; font-weight: 200;" fill="rgb(50, 49, 63)" stroke="none" stroke-width="1px">15</text><text x="353.33333333333337" y="0" dx="0em" dy="0.95em" style="text-anchor: middle; visibility: inherit; font-family: Roboto, sans-serif; font-size: 12px; font-weight: 200;" fill="rgb(50, 49, 63)" stroke="none" stroke-width="1px">20</text><text x="424" y="0" dx="0em" dy="0.95em" style="text-anchor: middle; visibility: inherit; font-family: Roboto, sans-serif; font-size: 12px; font-weight: 200;" fill="rgb(50, 49, 63)" stroke="none" stroke-width="1px">25</text><text x="494.6666666666667" y="0" dx="0em" dy="0.95em" style="text-anchor: middle; visibility: inherit; font-family: Roboto, sans-serif; font-size: 12px; font-weight: 200;" fill="rgb(50, 49, 63)" stroke="none" stroke-width="1px">30</text><text x="565.3333333333333" y="0" dx="0em" dy="0.95em" style="text-anchor: middle; visibility: inherit; font-family: Roboto, sans-serif; font-size: 12px; font-weight: 200;" fill="rgb(50, 49, 63)" stroke="none" stroke-width="1px">35</text><text x="636" y="0" dx="0em" dy="0.95em" style="text-anchor: middle; visibility: inherit; font-family: Roboto, sans-serif; font-size: 12px; font-weight: 200;" fill="rgb(50, 49, 63)" stroke="none" stroke-width="1px">40</text><text x="706.6666666666667" y="0" dx="0em" dy="0.95em" style="text-anchor: middle; visibility: inherit; font-family: Roboto, sans-serif; font-size: 12px; font-weight: 200;" fill="rgb(50, 49, 63)" stroke="none" stroke-width="1px">45</text><text x="777.3333333333333" y="0" dx="0em" dy="0.95em" style="text-anchor: middle; visibility: inherit; font-family: Roboto, sans-serif; font-size: 12px; font-weight: 200;" fill="rgb(50, 49, 63)" stroke="none" stroke-width="1px">50</text><text x="848" y="0" dx="0em" dy="0.95em" style="text-anchor: middle; visibility: hidden; font-family: Roboto, sans-serif; font-size: 12px; font-weight: 200;" fill="rgb(50, 49, 63)" stroke="none" stroke-width="1px">55</text></g><line x1="0" y1="0" x2="848" y2="0" fill="rgb(0, 0, 0)" stroke="rgb(204, 204, 204)" stroke-width="1px"></line></g></g></g></g></svg>