<svg viewBox="0 0 1145 400" xmlns="http://www.w3.org/2000/svg"><g><g><g><g><g><line x1="30" y1="378" x2="25" y2="378" style="visibility: inherit;" fill="rgb(0, 0, 0)" stroke="rgb(204, 204, 204)" stroke-width="1px"></line><line x1="30" y1="340.2" x2="25" y2="340.2" style="visibility: inherit;" fill="rgb(0, 0, 0)" stroke="rgb(204, 204, 204)" stroke-width="1px"></line><line x1="30" y1="302.40000000000003" x2="25" y2="302.40000000000003" style="visibility: inherit;" fill="rgb(0, 0, 0)" stroke="rgb(204, 204, 204)" stroke-width="1px"></line><line x1="30" y1="264.59999999999997" x2="25" y2="264.59999999999997" style="visibility: inherit;" fill="rgb(0, 0, 0)" stroke="rgb(204, 204, 204)" stroke-width="1px"></line><line x1="30" y1="226.79999999999998" x2="25" y2="226.79999999999998" style="visibility: inherit;" fill="rgb(0, 0, 0)" stroke="rgb(204, 204, 204)" stroke-width="1px"></line><line x1="30" y1="189" x2="25" y2="189" style="visibility: inherit;" fill="rgb(0, 0, 0)" stroke="rgb(204, 204, 204)" stroke-width="1px"></line><line x1="30" y1="151.20000000000002" x2="25" y2="151.20000000000002" style="visibility: inherit;" fill="rgb(0, 0, 0)" stroke="rgb(204, 204, 204)" stroke-width="1px"></line><line x1="30" y1="113.40000000000002" x2="25" y2="113.40000000000002" style="visibility: inherit;" fill="rgb(0, 0, 0)" stroke="rgb(204, 204, 204)" stroke-width="1px"></line><line x1="30" y1="75.59999999999998" x2="25" y2="75.59999999999998" style="visibility: inherit;" fill="rgb(0, 0, 0)" stroke="rgb(204, 204, 204)" stroke-width="1px"></line><line x1="30" y1="37.79999999999999" x2="25" y2="37.79999999999999" style="visibility: inherit;" fill="rgb(0, 0, 0)" stroke="rgb(204, 204, 204)" stroke-width="1px"></line><line x1="30" y1="0" x2="25" y2="0" style="visibility: inherit;" fill="rgb(0, 0, 0)" stroke="rgb(204, 204, 204)" stroke-width="1px"></line></g><g transform="translate(20, 0)"><text x="0" y="378" dx="0em" dy="0.3em" style="text-anchor: end; visibility: hidden; font-family: Roboto, sans-serif; font-size: 12px; font-weight: 200;" fill="rgb(50, 49, 63)" stroke="none" stroke-width="1px">-1</text><text x="0" y="340.2" dx="0em" dy="0.3em" style="text-anchor: end; visibility: inherit; font-family: Roboto, sans-serif; font-size: 12px; font-weight: 200;" fill="rgb(50, 49, 63)" stroke="none" stroke-width="1px">0</text><text x="0" y="302.40000000000003" dx="0em" dy="0.3em" style="text-anchor: end; visibility: inherit; font-family: Roboto, sans-serif; font-size: 12px; font-weight: 200;" fill="rgb(50, 49, 63)" stroke="none" stroke-width="1px">1</text><text x="0" y="264.59999999999997" dx="0em" dy="0.3em" style="text-anchor: end; visibility: inherit; font-family: Roboto, sans-serif; font-size: 12px; font-weight: 200;" fill="rgb(50, 49, 63)" stroke="none" stroke-width="1px">2</text><text x="0" y="226.79999999999998" dx="0em" dy="0.3em" style="text-anchor: end; visibility: inherit; font-family: Roboto, sans-serif; font-size: 12px; font-weight: 200;" fill="rgb(50, 49, 63)" stroke="none" stroke-width="1px">3</text><text x="0" y="189" dx="0em" dy="0.3em" style="text-anchor: end; visibility: inherit; font-family: Roboto, sans-serif; font-size: 12px; font-weight: 200;" fill="rgb(50, 49, 63)" stroke="none" stroke-width="1px">4</text><text x="0" y="151.20000000000002" dx="0em" dy="0.3em" style="text-anchor: end; visibility: inherit; font-family: Roboto, sans-serif; font-size: 12px; font-weight: 200;" fill="rgb(50, 49, 63)" stroke="none" stroke-width="1px">5</text><text x="0" y="113.40000000000002" dx="0em" dy="0.3em" style="text-anchor: end; visibility: inherit; font-family: Roboto, sans-serif; font-size: 12px; font-weight: 200;" fill="rgb(50, 49, 63)" stroke="none" stroke-width="1px">6</text><text x="0" y="75.59999999999998" dx="0em" dy="0.3em" style="text-anchor: end; visibility: inherit; font-family: Roboto, sans-serif; font-size: 12px; font-weight: 200;" fill="rgb(50, 49, 63)" stroke="none" stroke-width="1px">7</text><text x="0" y="37.79999999999999" dx="0em" dy="0.3em" style="text-anchor: end; visibility: inherit; font-family: Roboto, sans-serif; font-size: 12px; font-weight: 200;" fill="rgb(50, 49, 63)" stroke="none" stroke-width="1px">8</text><text x="0" y="0" dx="0em" dy="0.3em" style="text-anchor: end; visibility: hidden; font-family: Roboto, sans-serif; font-size: 12px; font-weight: 200;" fill="rgb(50, 49, 63)" stroke="none" stroke-width="1px">9</text></g><line x1="30" y1="0" x2="30" y2="378" fill="rgb(0, 0, 0)" stroke="rgb(204, 204, 204)" stroke-width="1px"></line></g></g><g transform="translate(30, 0)" clip-path="url(#clip_0)"><clipPath id="clip_0"><rect width="1115" height="378"></rect></clipPath><g><g><g><line x1="0" y1="0" x2="0" y2="378" fill="rgb(0, 0, 0)" stroke="rgb(60, 60, 60)" stroke-width="1px" opacity="0.25"></line><line x1="92.91666666666666" y1="0" x2="92.91666666666666" y2="378" fill="rgb(0, 0, 0)" stroke="rgb(60, 60, 60)" stroke-width="1px" opacity="0.25"></line><line x1="185.83333333333331" y1="0" x2="185.83333333333331" y2="378" fill="rgb(0, 0, 0)" stroke="rgb(60, 60, 60)" stroke-width="1px" opacity="0.25"></line><line x1="278.75" y1="0" x2="278.75" y2="378" fill="rgb(0, 0, 0)" stroke="rgb(60, 60, 60)" stroke-width="1px" opacity="0.25"></line><line x1="371.66666666666663" y1="0" x2="371.66666666666663" y2="378" fill="rgb(0, 0, 0)" stroke="rgb(60, 60, 60)" stroke-width="1px" opacity="0.25"></line><line x1="464.58333333333337" y1="0" x2="464.58333333333337" y2="378" fill="rgb(0, 0, 0)" stroke="rgb(60, 60, 60)" stroke-width="1px" opacity="0.25"></line><line x1="557.5" y1="0" x2="557.5" y2="378" fill="rgb(0, 0, 0)" stroke="rgb(60, 60, 60)" stroke-width="1px" opacity="0.25"></line><line x1="650.4166666666667" y1="0" x2="650.4166666666667" y2="378" fill="rgb(0, 0, 0)" stroke="rgb(60, 60, 60)" stroke-width="1px" opacity="0.25"></line><line x1="743.3333333333333" y1="0" x2="743.3333333333333" y2="378" fill="rgb(0, 0, 0)" stroke="rgb(60, 60, 60)" stroke-width="1px" opacity="0.25"></line><line x1="836.25" y1="0" x2="836.25" y2="378" fill="rgb(0, 0, 0)" stroke="rgb(60, 60, 60)" stroke-width="1px" opacity="0.25"></line><line x1="929.1666666666667" y1="0" x2="929.1666666666667" y2="378" fill="rgb(0, 0, 0)" stroke="rgb(60, 60, 60)" stroke-width="1px" opacity="0.25"></line><line x1="1022.0833333333333" y1="0" x2="1022.0833333333333" y2="378" fill="rgb(0, 0, 0)" stroke="rgb(60, 60, 60)" stroke-width="1px" opacity="0.25"></line><line x1="1115" y1="0" x2="1115" y2="378" fill="rgb(0, 0, 0)" stroke="rgb(60, 60, 60)" stroke-width="1px" opacity="0.25"></line></g><g><line x1="0" y1="378" x2="1115" y2="378" fill="rgb(0, 0, 0)" stroke="rgb(60, 60, 60)" stroke-width="1px" opacity="0.25"></line><line x1="0" y1="340.2" x2="1115" y2="340.2" fill="rgb(0, 0, 0)" stroke="rgb(60, 60, 60)" stroke-width="1px" opacity="0.25"></line><line x1="0" y1="302.40000000000003" x2="1115" y2="302.40000000000003" fill="rgb(0, 0, 0)" stroke="rgb(60, 60, 60)" stroke-width="1px" opacity="0.25"></line><line x1="0" y1="264.59999999999997" x2="1115" y2="264.59999999999997" fill="rgb(0, 0, 0)" stroke="rgb(60, 60, 60)" stroke-width="1px" opacity="0.25"></line><line x1="0" y1="226.79999999999998" x2="1115" y2="226.79999999999998" fill="rgb(0, 0, 0)" stroke="rgb(60, 60, 60)" stroke-width="1px" opacity="0.25"></line><line x1="0" y1="189" x2="1115" y2="189" fill="rgb(0, 0, 0)" stroke="rgb(60, 60, 60)" stroke-width="1px" opacity="0.25"></line><line x1="0" y1="151.20000000000002" x2="1115" y2="151.20000000000002" fill="rgb(0, 0, 0)" stroke="rgb(60, 60, 60)" stroke-width="1px" opacity="0.25"></line><line x1="0" y1="113.40000000000002" x2="1115" y2="113.40000000000002" fill="rgb(0, 0, 0)" stroke="rgb(60, 60, 60)" stroke-width="1px" opacity="0.25"></line><line x1="0" y1="75.59999999999998" x2="1115" y2="75.59999999999998" fill="rgb(0, 0, 0)" stroke="rgb(60, 60, 60)" stroke-width="1px" opacity="0.25"></line><line x1="0" y1="37.79999999999999" x2="1115" y2="37.79999999999999" fill="rgb(0, 0, 0)" stroke="rgb(60, 60, 60)" stroke-width="1px" opacity="0.25"></line><line x1="0" y1="0" x2="1115" y2="0" fill="rgb(0, 0, 0)" stroke="rgb(60, 60, 60)" stroke-width="1px" opacity="0.25"></line></g></g></g><g><g><line x1="0" y1="340.2" x2="1115" y2="340.2" fill="rgb(0, 0, 0)" stroke="rgb(153, 153, 153)" stroke-width="1.5px"></line></g></g><g><g><line x1="92.91666666666666" y1="0" x2="92.91666666666666" y2="378" fill="rgb(0, 0, 0)" stroke="rgb(153, 153, 153)" stroke-width="1.5px"></line></g></g><g><g><g><g><g><path stroke="rgb(51, 187, 238)" stroke-width="2px" d="M92.91666666666666,226.03155484199524L111.5,213.7411006450653L130.08333333333334,203.90937895774843L148.66666666666666,193.7505226135254L167.25,190.7167021751404L185.83333333333331,179.2238296508789L204.41666666666666,178.19038009643555L223,168.94740886688234L241.58333333333334,164.15708827972412L260.1666666666667,159.07430305480958L278.75,152.48822507858276L297.3333333333333,148.72120628356933L315.9166666666667,140.2524570465088L334.5,136.3961812019348L353.0833333333333,130.9406865119934L371.66666666666663,124.35112981796264L390.25,127.6902663230896L408.8333333333333,118.76475963592527L427.4166666666667,118.88853349685671L446,112.9353298187256L464.58333333333337,109.35392675399778L483.1666666666667,106.39570083618166L501.75,97.99987850189207L520.3333333333334,101.08290567398073L538.9166666666666,96.61558313369751L557.5,88.64803962707519L576.0833333333334,89.48864564895628L594.6666666666666,86.60316638946533L613.25,86.64867811203003L631.8333333333334,79.16705560684204L650.4166666666667,78.06742029190063L669,78.0965117454529L687.5833333333334,68.02865180969236L706.1666666666666,68.75274782180786L724.75,66.62496213912964L743.3333333333333,62.93634967803954L761.9166666666666,62.30172700881959L780.5,57.561838817596445L799.0833333333334,57.61331663131712L817.6666666666666,51.14135141372682L836.25,49.62675733566285L854.8333333333334,49.175046730041494L873.4166666666666,43.80588912963867L892,44.35642776489256L910.5833333333334,39.74945182800294L929.1666666666667,43.326979637145996L947.75,34.79582977294922L966.3333333333334,33.32193489074708L984.9166666666666,31.376051902770996L1003.5,31.128396034240723" style="fill: none;" fill="none"></path></g><g><path stroke="rgb(204, 51, 17)" stroke-width="2px" d="M92.91666666666666,224.45749812126158L111.5,238.89579920768736L130.08333333333334,244.89636211395262L148.66666666666666,248.07122383117675L167.25,250.6719889640808L185.83333333333331,253.35617122650146L204.41666666666666,253.3932475090027L223,255.75796451568604L241.58333333333334,256.11756119728085L260.1666666666667,256.1804034233093L278.75,257.7105165481567L297.3333333333333,258.6227156639099L315.9166666666667,258.8393334388733L334.5,259.3151787757874L353.0833333333333,260.28425402641295L371.66666666666663,260.1738362789154L390.25,260.3713841915131L408.8333333333333,261.29397439956665L427.4166666666667,260.3758272171021L446,260.9281052112579L464.58333333333337,261.4059512615204L483.1666666666667,261.4752192020416L501.75,262.22070121765137L520.3333333333334,261.2162169456482L538.9166666666666,261.63216705322264L557.5,262.03832988739015L576.0833333333334,263.21325330734254L594.6666666666666,263.1691925525665L613.25,262.87331228256227L631.8333333333334,262.8116686820984L650.4166666666667,261.6877454280853L669,262.9542420387268L687.5833333333334,262.57098827362057L706.1666666666666,262.04402561187743L724.75,263.30235714912413L743.3333333333333,262.72790908813477L761.9166666666666,263.36299138069154L780.5,262.5580647468567L799.0833333333334,262.2302361488342L817.6666666666666,262.25547938346864L836.25,262.50057578086853L854.8333333333334,263.3361529827118L873.4166666666666,262.9109923839569L892,263.1618566036224L910.5833333333334,262.5582179546356L929.1666666666667,263.22306761741635L947.75,262.32528805732727L966.3333333333334,262.401531457901L984.9166666666666,263.4896131038666L1003.5,263.13450450897216" style="fill: none;" fill="none"></path></g><g><path stroke="rgb(0, 119, 187)" stroke-width="2px" d="M92.91666666666666,286.955317568779L111.5,290.717911362648L130.08333333333334,292.1244398832321L148.66666666666666,292.6262133836746L167.25,292.73890221118927L185.83333333333331,292.6255870342255L204.41666666666666,292.60021312236785L223,292.24617247581483L241.58333333333334,291.8619093418121L260.1666666666667,291.5379469871521L278.75,291.1931303501129L297.3333333333333,290.8137608528137L315.9166666666667,290.35522799491883L334.5,289.96884698867797L353.0833333333333,289.5589981555939L371.66666666666663,289.10269582271576L390.25,288.67824268341064L408.8333333333333,288.2974402427673L427.4166666666667,287.9321253061294L446,287.5019944667816L464.58333333333337,287.18712995052334L483.1666666666667,286.7643035173416L501.75,286.2340784311295L520.3333333333334,285.9274285554886L538.9166666666666,285.44164724349974L557.5,285.1649765253067L576.0833333333334,284.73488624095916L594.6666666666666,284.38367092609406L613.25,283.85878107547757L631.8333333333334,283.64070782661435L650.4166666666667,283.1883708715439L669,282.81059653759L687.5833333333334,282.7808516979217L706.1666666666666,282.3166321277618L724.75,282.0505057096481L743.3333333333333,281.7110468387604L761.9166666666666,281.44353704452516L780.5,280.91660141944885L799.0833333333334,280.7216625452042L817.6666666666666,280.44047219753264L836.25,279.9508967399597L854.8333333333334,279.6670703172684L873.4166666666666,279.27718355655674L892,278.924210858345L910.5833333333334,278.702073097229L929.1666666666667,278.42688488960266L947.75,278.1535441875458L966.3333333333334,277.9907744407654L984.9166666666666,277.4830573797226L1003.5,277.27867369651796" style="fill: none;" fill="none"></path></g><g><path stroke="rgb(255, 112, 67)" stroke-width="2px" d="M92.91666666666666,271.1396154642105L111.5,291.0295089483261L130.08333333333334,296.46324362754825L148.66666666666666,299.84986102581024L167.25,302.27180564403534L185.83333333333331,304.3447181582451L204.41666666666666,305.87397286891934L223,307.245793068409L241.58333333333334,308.33762830495834L260.1666666666667,309.29976189136505L278.75,310.1973319172859L297.3333333333333,310.96531069278717L315.9166666666667,311.6803944826126L334.5,312.16712658405305L353.0833333333333,312.73919091224667L371.66666666666663,313.3258820772171L390.25,313.7808641195297L408.8333333333333,314.13146435022355L427.4166666666667,314.60392334461216L446,314.9840318441391L464.58333333333337,315.39284427165984L483.1666666666667,315.65217998027805L501.75,315.934147632122L520.3333333333334,316.149929523468L538.9166666666666,316.33467782735823L557.5,316.69547313451767L576.0833333333334,316.9768932938576L594.6666666666666,317.09409048557285L613.25,317.1858461737633L631.8333333333334,317.54649728536606L650.4166666666667,317.71109651327134L669,317.99096206426617L687.5833333333334,318.05959689617157L706.1666666666666,318.17438782453536L724.75,318.4183284044266L743.3333333333333,318.53013178110126L761.9166666666666,318.62122281789783L780.5,318.76826173067093L799.0833333333334,318.9096432209015L817.6666666666666,319.187586915493L836.25,319.1581552505493L854.8333333333334,319.27239418029785L873.4166666666666,319.3926307439804L892,319.4629936695099L910.5833333333334,319.6417826414108L929.1666666666667,319.7524910330772L947.75,319.87600128650666L966.3333333333334,319.8002670764923L984.9166666666666,320.0044930458069L1003.5,320.16669952869415" style="fill: none;" fill="none"></path></g><g><path stroke="rgb(0, 153, 136)" stroke-width="2px" d="M92.91666666666666,263.0144436836243L111.5,276.088258266449L130.08333333333334,281.2904464244843L148.66666666666666,284.2312427043915L167.25,286.1725249528885L185.83333333333331,287.57412378787996L204.41666666666666,288.6568386554718L223,289.5390586137772L241.58333333333334,290.2216263055802L260.1666666666667,290.8064158916473L278.75,291.27927367687226L297.3333333333333,291.6990269422531L315.9166666666667,292.0314112186432L334.5,292.3417470932007L353.0833333333333,292.5939586400986L371.66666666666663,292.822044467926L390.25,293.04466438293457L408.8333333333333,293.21707270145413L427.4166666666667,293.3926172733307L446,293.51277272701265L464.58333333333337,293.62350590229033L483.1666666666667,293.7323239803314L501.75,293.8393981933594L520.3333333333334,293.920485663414L538.9166666666666,294.01005814075467L557.5,294.0557726383209L576.0833333333334,294.108908700943L594.6666666666666,294.15369043350216L613.25,294.15570015907286L631.8333333333334,294.2312315940857L650.4166666666667,294.2404510974884L669,294.2567902565002L687.5833333333334,294.28159639835354L706.1666666666666,294.3233229875564L724.75,294.3149686574936L743.3333333333333,294.3079526424408L761.9166666666666,294.2959213256836L780.5,294.3063304424286L799.0833333333334,294.3244855642319L817.6666666666666,294.3311140537262L836.25,294.27593672275543L854.8333333333334,294.27479217052456L873.4166666666666,294.27433705329895L892,294.26173346042634L910.5833333333334,294.2309386968613L929.1666666666667,294.2181052923202L947.75,294.20013041496276L966.3333333333334,294.1561597824097L984.9166666666666,294.1496935129166L1003.5,294.106858420372" style="fill: none;" fill="none"></path></g><g><path stroke="rgb(238, 51, 119)" stroke-width="2px" d="M92.91666666666666,232.79689493179322L111.5,270.0912957429886L130.08333333333334,279.2300992012024L148.66666666666666,283.9086186647415L167.25,287.009571146965L185.83333333333331,289.31830422878267L204.41666666666666,291.1370382785797L223,292.8023031949997L241.58333333333334,293.9962649345398L260.1666666666667,295.2703813791275L278.75,296.2398441553116L297.3333333333333,297.13517239093784L315.9166666666667,297.9343086719513L334.5,298.7876624822616L353.0833333333333,299.4755293607712L371.66666666666663,300.0422088861465L390.25,300.72189717292787L408.8333333333333,301.23951866626743L427.4166666666667,301.72843172550205L446,302.26106758117675L464.58333333333337,302.73012446165086L483.1666666666667,303.16168373823166L501.75,303.58852286338805L520.3333333333334,304.0399811267853L538.9166666666666,304.448171710968L557.5,304.77357151508335L576.0833333333334,305.05007550716397L594.6666666666666,305.4695786833763L613.25,305.6506928086281L631.8333333333334,306.0405885815621L650.4166666666667,306.36113305091857L669,306.75692056417466L687.5833333333334,307.0491441249847L706.1666666666666,307.22572735548016L724.75,307.4560594797135L743.3333333333333,307.74336462020875L761.9166666666666,308.00481820106506L780.5,308.21098630428315L799.0833333333334,308.46435366868974L817.6666666666666,308.73411426544186L836.25,308.90740127563475L854.8333333333334,309.1649886131286L873.4166666666666,309.30917065143586L892,309.56348880529407L910.5833333333334,309.8334521770477L929.1666666666667,309.85705068111423L947.75,310.11752418279644L966.3333333333334,310.28010016679764L984.9166666666666,310.4642221212387L1003.5,310.6540668368339" style="fill: none;" fill="none"></path></g></g></g></g></g></g><g transform="translate(30, 378)" clip-path="url(#clip_1)"><clipPath id="clip_1"><rect width="1115" height="22"></rect></clipPath><g><g><line x1="0" y1="0" x2="0" y2="5" style="visibility: inherit;" fill="rgb(0, 0, 0)" stroke="rgb(204, 204, 204)" stroke-width="1px"></line><line x1="92.91666666666666" y1="0" x2="92.91666666666666" y2="5" style="visibility: inherit;" fill="rgb(0, 0, 0)" stroke="rgb(204, 204, 204)" stroke-width="1px"></line><line x1="185.83333333333331" y1="0" x2="185.83333333333331" y2="5" style="visibility: inherit;" fill="rgb(0, 0, 0)" stroke="rgb(204, 204, 204)" stroke-width="1px"></line><line x1="278.75" y1="0" x2="278.75" y2="5" style="visibility: inherit;" fill="rgb(0, 0, 0)" stroke="rgb(204, 204, 204)" stroke-width="1px"></line><line x1="371.66666666666663" y1="0" x2="371.66666666666663" y2="5" style="visibility: inherit;" fill="rgb(0, 0, 0)" stroke="rgb(204, 204, 204)" stroke-width="1px"></line><line x1="464.58333333333337" y1="0" x2="464.58333333333337" y2="5" style="visibility: inherit;" fill="rgb(0, 0, 0)" stroke="rgb(204, 204, 204)" stroke-width="1px"></line><line x1="557.5" y1="0" x2="557.5" y2="5" style="visibility: inherit;" fill="rgb(0, 0, 0)" stroke="rgb(204, 204, 204)" stroke-width="1px"></line><line x1="650.4166666666667" y1="0" x2="650.4166666666667" y2="5" style="visibility: inherit;" fill="rgb(0, 0, 0)" stroke="rgb(204, 204, 204)" stroke-width="1px"></line><line x1="743.3333333333333" y1="0" x2="743.3333333333333" y2="5" style="visibility: inherit;" fill="rgb(0, 0, 0)" stroke="rgb(204, 204, 204)" stroke-width="1px"></line><line x1="836.25" y1="0" x2="836.25" y2="5" style="visibility: inherit;" fill="rgb(0, 0, 0)" stroke="rgb(204, 204, 204)" stroke-width="1px"></line><line x1="929.1666666666667" y1="0" x2="929.1666666666667" y2="5" style="visibility: inherit;" fill="rgb(0, 0, 0)" stroke="rgb(204, 204, 204)" stroke-width="1px"></line><line x1="1022.0833333333333" y1="0" x2="1022.0833333333333" y2="5" style="visibility: inherit;" fill="rgb(0, 0, 0)" stroke="rgb(204, 204, 204)" stroke-width="1px"></line><line x1="1115" y1="0" x2="1115" y2="5" style="visibility: inherit;" fill="rgb(0, 0, 0)" stroke="rgb(204, 204, 204)" stroke-width="1px"></line></g><g transform="translate(0, 8)"><text x="0" y="0" dx="0em" dy="0.95em" style="text-anchor: middle; visibility: hidden; font-family: Roboto, sans-serif; font-size: 12px; font-weight: 200;" fill="rgb(50, 49, 63)" stroke="none" stroke-width="1px">-5</text><text x="92.91666666666666" y="0" dx="0em" dy="0.95em" style="text-anchor: middle; visibility: inherit; font-family: Roboto, sans-serif; font-size: 12px; font-weight: 200;" fill="rgb(50, 49, 63)" stroke="none" stroke-width="1px">0</text><text x="185.83333333333331" y="0" dx="0em" dy="0.95em" style="text-anchor: middle; visibility: inherit; font-family: Roboto, sans-serif; font-size: 12px; font-weight: 200;" fill="rgb(50, 49, 63)" stroke="none" stroke-width="1px">5</text><text x="278.75" y="0" dx="0em" dy="0.95em" style="text-anchor: middle; visibility: inherit; font-family: Roboto, sans-serif; font-size: 12px; font-weight: 200;" fill="rgb(50, 49, 63)" stroke="none" stroke-width="1px">10</text><text x="371.66666666666663" y="0" dx="0em" dy="0.95em" style="text-anchor: middle; visibility: inherit; font-family: Roboto, sans-serif; font-size: 12px; font-weight: 200;" fill="rgb(50, 49, 63)" stroke="none" stroke-width="1px">15</text><text x="464.58333333333337" y="0" dx="0em" dy="0.95em" style="text-anchor: middle; visibility: inherit; font-family: Roboto, sans-serif; font-size: 12px; font-weight: 200;" fill="rgb(50, 49, 63)" stroke="none" stroke-width="1px">20</text><text x="557.5" y="0" dx="0em" dy="0.95em" style="text-anchor: middle; visibility: inherit; font-family: Roboto, sans-serif; font-size: 12px; font-weight: 200;" fill="rgb(50, 49, 63)" stroke="none" stroke-width="1px">25</text><text x="650.4166666666667" y="0" dx="0em" dy="0.95em" style="text-anchor: middle; visibility: inherit; font-family: Roboto, sans-serif; font-size: 12px; font-weight: 200;" fill="rgb(50, 49, 63)" stroke="none" stroke-width="1px">30</text><text x="743.3333333333333" y="0" dx="0em" dy="0.95em" style="text-anchor: middle; visibility: inherit; font-family: Roboto, sans-serif; font-size: 12px; font-weight: 200;" fill="rgb(50, 49, 63)" stroke="none" stroke-width="1px">35</text><text x="836.25" y="0" dx="0em" dy="0.95em" style="text-anchor: middle; visibility: inherit; font-family: Roboto, sans-serif; font-size: 12px; font-weight: 200;" fill="rgb(50, 49, 63)" stroke="none" stroke-width="1px">40</text><text x="929.1666666666667" y="0" dx="0em" dy="0.95em" style="text-anchor: middle; visibility: inherit; font-family: Roboto, sans-serif; font-size: 12px; font-weight: 200;" fill="rgb(50, 49, 63)" stroke="none" stroke-width="1px">45</text><text x="1022.0833333333333" y="0" dx="0em" dy="0.95em" style="text-anchor: middle; visibility: inherit; font-family: Roboto, sans-serif; font-size: 12px; font-weight: 200;" fill="rgb(50, 49, 63)" stroke="none" stroke-width="1px">50</text><text x="1115" y="0" dx="0em" dy="0.95em" style="text-anchor: middle; visibility: hidden; font-family: Roboto, sans-serif; font-size: 12px; font-weight: 200;" fill="rgb(50, 49, 63)" stroke="none" stroke-width="1px">55</text></g><line x1="0" y1="0" x2="1115" y2="0" fill="rgb(0, 0, 0)" stroke="rgb(204, 204, 204)" stroke-width="1px"></line></g></g></g></g></svg>