<svg viewBox="0 0 1145 400" xmlns="http://www.w3.org/2000/svg"><g><g><g><g><g><line x1="50" y1="378" x2="45" y2="378" style="visibility: inherit;" fill="rgb(0, 0, 0)" stroke="rgb(204, 204, 204)" stroke-width="1px"></line><line x1="50" y1="330.74999999999994" x2="45" y2="330.74999999999994" style="visibility: inherit;" fill="rgb(0, 0, 0)" stroke="rgb(204, 204, 204)" stroke-width="1px"></line><line x1="50" y1="283.5" x2="45" y2="283.5" style="visibility: inherit;" fill="rgb(0, 0, 0)" stroke="rgb(204, 204, 204)" stroke-width="1px"></line><line x1="50" y1="236.25" x2="45" y2="236.25" style="visibility: inherit;" fill="rgb(0, 0, 0)" stroke="rgb(204, 204, 204)" stroke-width="1px"></line><line x1="50" y1="189.00000000000003" x2="45" y2="189.00000000000003" style="visibility: inherit;" fill="rgb(0, 0, 0)" stroke="rgb(204, 204, 204)" stroke-width="1px"></line><line x1="50" y1="141.75" x2="45" y2="141.75" style="visibility: inherit;" fill="rgb(0, 0, 0)" stroke="rgb(204, 204, 204)" stroke-width="1px"></line><line x1="50" y1="94.49999999999996" x2="45" y2="94.49999999999996" style="visibility: inherit;" fill="rgb(0, 0, 0)" stroke="rgb(204, 204, 204)" stroke-width="1px"></line><line x1="50" y1="47.25000000000004" x2="45" y2="47.25000000000004" style="visibility: inherit;" fill="rgb(0, 0, 0)" stroke="rgb(204, 204, 204)" stroke-width="1px"></line><line x1="50" y1="0" x2="45" y2="0" style="visibility: inherit;" fill="rgb(0, 0, 0)" stroke="rgb(204, 204, 204)" stroke-width="1px"></line></g><g transform="translate(40, 0)"><text x="0" y="378" dx="0em" dy="0.3em" style="text-anchor: end; visibility: hidden; font-family: Roboto, sans-serif; font-size: 12px; font-weight: 200;" fill="rgb(50, 49, 63)" stroke="none" stroke-width="1px">0.5</text><text x="0" y="330.74999999999994" dx="0em" dy="0.3em" style="text-anchor: end; visibility: inherit; font-family: Roboto, sans-serif; font-size: 12px; font-weight: 200;" fill="rgb(50, 49, 63)" stroke="none" stroke-width="1px">0.55</text><text x="0" y="283.5" dx="0em" dy="0.3em" style="text-anchor: end; visibility: inherit; font-family: Roboto, sans-serif; font-size: 12px; font-weight: 200;" fill="rgb(50, 49, 63)" stroke="none" stroke-width="1px">0.6</text><text x="0" y="236.25" dx="0em" dy="0.3em" style="text-anchor: end; visibility: inherit; font-family: Roboto, sans-serif; font-size: 12px; font-weight: 200;" fill="rgb(50, 49, 63)" stroke="none" stroke-width="1px">0.65</text><text x="0" y="189.00000000000003" dx="0em" dy="0.3em" style="text-anchor: end; visibility: inherit; font-family: Roboto, sans-serif; font-size: 12px; font-weight: 200;" fill="rgb(50, 49, 63)" stroke="none" stroke-width="1px">0.7</text><text x="0" y="141.75" dx="0em" dy="0.3em" style="text-anchor: end; visibility: inherit; font-family: Roboto, sans-serif; font-size: 12px; font-weight: 200;" fill="rgb(50, 49, 63)" stroke="none" stroke-width="1px">0.75</text><text x="0" y="94.49999999999996" dx="0em" dy="0.3em" style="text-anchor: end; visibility: inherit; font-family: Roboto, sans-serif; font-size: 12px; font-weight: 200;" fill="rgb(50, 49, 63)" stroke="none" stroke-width="1px">0.8</text><text x="0" y="47.25000000000004" dx="0em" dy="0.3em" style="text-anchor: end; visibility: inherit; font-family: Roboto, sans-serif; font-size: 12px; font-weight: 200;" fill="rgb(50, 49, 63)" stroke="none" stroke-width="1px">0.85</text><text x="0" y="0" dx="0em" dy="0.3em" style="text-anchor: end; visibility: hidden; font-family: Roboto, sans-serif; font-size: 12px; font-weight: 200;" fill="rgb(50, 49, 63)" stroke="none" stroke-width="1px">0.9</text></g><line x1="50" y1="0" x2="50" y2="378" fill="rgb(0, 0, 0)" stroke="rgb(204, 204, 204)" stroke-width="1px"></line></g></g><g transform="translate(50, 0)" clip-path="url(#clip_0)"><clipPath id="clip_0"><rect width="1095" height="378"></rect></clipPath><g><g><g><line x1="0" y1="0" x2="0" y2="378" fill="rgb(0, 0, 0)" stroke="rgb(60, 60, 60)" stroke-width="1px" opacity="0.25"></line><line x1="91.25" y1="0" x2="91.25" y2="378" fill="rgb(0, 0, 0)" stroke="rgb(60, 60, 60)" stroke-width="1px" opacity="0.25"></line><line x1="182.5" y1="0" x2="182.5" y2="378" fill="rgb(0, 0, 0)" stroke="rgb(60, 60, 60)" stroke-width="1px" opacity="0.25"></line><line x1="273.75" y1="0" x2="273.75" y2="378" fill="rgb(0, 0, 0)" stroke="rgb(60, 60, 60)" stroke-width="1px" opacity="0.25"></line><line x1="365" y1="0" x2="365" y2="378" fill="rgb(0, 0, 0)" stroke="rgb(60, 60, 60)" stroke-width="1px" opacity="0.25"></line><line x1="456.25" y1="0" x2="456.25" y2="378" fill="rgb(0, 0, 0)" stroke="rgb(60, 60, 60)" stroke-width="1px" opacity="0.25"></line><line x1="547.5" y1="0" x2="547.5" y2="378" fill="rgb(0, 0, 0)" stroke="rgb(60, 60, 60)" stroke-width="1px" opacity="0.25"></line><line x1="638.75" y1="0" x2="638.75" y2="378" fill="rgb(0, 0, 0)" stroke="rgb(60, 60, 60)" stroke-width="1px" opacity="0.25"></line><line x1="730" y1="0" x2="730" y2="378" fill="rgb(0, 0, 0)" stroke="rgb(60, 60, 60)" stroke-width="1px" opacity="0.25"></line><line x1="821.25" y1="0" x2="821.25" y2="378" fill="rgb(0, 0, 0)" stroke="rgb(60, 60, 60)" stroke-width="1px" opacity="0.25"></line><line x1="912.5" y1="0" x2="912.5" y2="378" fill="rgb(0, 0, 0)" stroke="rgb(60, 60, 60)" stroke-width="1px" opacity="0.25"></line><line x1="1003.75" y1="0" x2="1003.75" y2="378" fill="rgb(0, 0, 0)" stroke="rgb(60, 60, 60)" stroke-width="1px" opacity="0.25"></line><line x1="1095" y1="0" x2="1095" y2="378" fill="rgb(0, 0, 0)" stroke="rgb(60, 60, 60)" stroke-width="1px" opacity="0.25"></line></g><g><line x1="0" y1="378" x2="1095" y2="378" fill="rgb(0, 0, 0)" stroke="rgb(60, 60, 60)" stroke-width="1px" opacity="0.25"></line><line x1="0" y1="330.74999999999994" x2="1095" y2="330.74999999999994" fill="rgb(0, 0, 0)" stroke="rgb(60, 60, 60)" stroke-width="1px" opacity="0.25"></line><line x1="0" y1="283.5" x2="1095" y2="283.5" fill="rgb(0, 0, 0)" stroke="rgb(60, 60, 60)" stroke-width="1px" opacity="0.25"></line><line x1="0" y1="236.25" x2="1095" y2="236.25" fill="rgb(0, 0, 0)" stroke="rgb(60, 60, 60)" stroke-width="1px" opacity="0.25"></line><line x1="0" y1="189.00000000000003" x2="1095" y2="189.00000000000003" fill="rgb(0, 0, 0)" stroke="rgb(60, 60, 60)" stroke-width="1px" opacity="0.25"></line><line x1="0" y1="141.75" x2="1095" y2="141.75" fill="rgb(0, 0, 0)" stroke="rgb(60, 60, 60)" stroke-width="1px" opacity="0.25"></line><line x1="0" y1="94.49999999999996" x2="1095" y2="94.49999999999996" fill="rgb(0, 0, 0)" stroke="rgb(60, 60, 60)" stroke-width="1px" opacity="0.25"></line><line x1="0" y1="47.25000000000004" x2="1095" y2="47.25000000000004" fill="rgb(0, 0, 0)" stroke="rgb(60, 60, 60)" stroke-width="1px" opacity="0.25"></line><line x1="0" y1="0" x2="1095" y2="0" fill="rgb(0, 0, 0)" stroke="rgb(60, 60, 60)" stroke-width="1px" opacity="0.25"></line></g></g></g><g><g><line x1="0" y1="850.5" x2="1095" y2="850.5" fill="rgb(0, 0, 0)" stroke="rgb(153, 153, 153)" stroke-width="1.5px"></line></g></g><g><g><line x1="91.25" y1="0" x2="91.25" y2="378" fill="rgb(0, 0, 0)" stroke="rgb(153, 153, 153)" stroke-width="1.5px"></line></g></g><g><g><g><g><g><path stroke="rgb(51, 187, 238)" stroke-width="2px" d="M91.25,316.17846447229385L109.5,309.0703557729721L127.75,302.18051183223724L146,304.5187329053879L164.25,295.1971660852432L182.5,297.94059920310974L200.75,288.83729714155197L219,296.5065293312073L237.25,292.3913233280182L255.5,289.7725405097008L273.75,289.149063706398L292,290.2402185201645L310.25,291.26902002096176L328.5,292.82779651880264L346.75,294.1995130777359L365,293.35777151584625L383.25,290.39607363939285L401.5,293.5448314547539L419.75,289.71018719673157L438,287.9332022666931L456.25,289.9596004486084L474.5,290.67663538455963L492.75,294.76069289445877L511,292.01720345020294L529.25,290.67663538455963L547.5,296.3506742119789L565.75,290.6454868912697L584,291.3625218272209L602.25,287.9955555796623L620.5,291.08196008205414L638.75,291.95485013723373L657,286.43677908182144L675.25,294.10601127147675L693.5,290.9572534561157L711.75,288.8060923218727L730,288.6190887093544L748.25,289.58553689718246L766.5,292.7965916991234L784.75,292.14191007614136L803,292.20426338911057L821.25,288.2137640118599L839.5,289.6166853904724L857.75,291.4248751401901L876,292.5160299539566L894.25,291.0507552623749L912.5,290.7701935172081L930.75,294.44892632961273L949,294.0748064517975L967.25,291.8924968242645L985.5,291.79899501800537" style="fill: none;" fill="none"></path></g><g><path stroke="rgb(204, 51, 17)" stroke-width="2px" d="M91.25,375.7807965874672L109.5,291.97304356098175L127.75,260.38300770521164L146,244.1401668190956L164.25,229.19407206773758L182.5,217.97779816389084L200.75,212.16243642568588L219,202.1627562046051L237.25,197.0826791524887L255.5,193.37955701351166L273.75,190.93307662010193L292,183.95468759536743L310.25,181.08046460151672L328.5,177.48430627584457L346.75,173.5539071559906L365,170.98711359500885L383.25,169.79733127355576L401.5,164.83756738901138L419.75,166.28138172626495L438,162.96595412492752L456.25,158.1399090886116L474.5,158.55435866117477L492.75,154.91809594631195L511,154.3565781712532L529.25,154.47689133882523L547.5,152.16412979364395L565.75,148.66158592700958L584,147.88619685173035L602.25,147.49850231409073L620.5,145.7472022175789L638.75,145.72050350904465L657,142.76601541042328L675.25,142.2847627401352L693.5,142.5654934644699L711.75,139.71796917915344L730,140.1858724951744L748.25,136.09505581855774L766.5,137.2581394314766L784.75,137.37845259904861L803,135.76087135076523L821.25,135.52024501562119L839.5,134.31705701351166L857.75,133.54166793823242L876,133.6352823972702L894.25,131.08183819055557L912.5,130.89466559886932L930.75,130.09257781505585L949,129.91881090402603L967.25,127.76641058921814L985.5,128.64876347780228" style="fill: none;" fill="none"></path></g><g><path stroke="rgb(0, 119, 187)" stroke-width="2px" d="M91.25,253.0786578655243L109.5,232.37797755002975L127.75,225.58163541555405L146,221.06116104125977L164.25,220.37527459859848L182.5,220.4376279115677L200.75,220.0323595404625L219,219.53353303670883L237.25,221.2482209801674L255.5,221.03001254796982L273.75,221.65348935127258L292,221.93410742282867L310.25,222.6511423587799L328.5,224.52168542146683L346.75,225.1451622247696L365,225.73754686117172L383.25,226.57928842306137L401.5,228.76159805059433L419.75,228.54333329200745L438,229.97745949029922L456.25,229.47863298654556L474.5,231.03740948438644L492.75,232.50268417596817L511,231.97270917892456L529.25,234.4355805516243L547.5,234.18616729974747L565.75,235.3708239197731L584,236.08785885572433L602.25,238.14546185731888L620.5,237.21021848917007L638.75,236.96080523729324L657,238.737846493721L675.25,238.23901998996735L693.5,239.79779648780823L711.75,239.8913546204567L730,238.80019980669022L748.25,240.3589763045311L766.5,241.88660430908203L784.75,240.0160612463951L803,243.1024094223976L821.25,242.07360792160034L839.5,241.94895762205124L857.75,243.63244074583054L876,244.34947568178177L894.25,244.63003742694855L912.5,244.50533080101013L930.75,244.41182899475098L949,243.75714737176895L967.25,246.25116723775864L985.5,247.81000006198883" style="fill: none;" fill="none"></path></g><g><path stroke="rgb(255, 112, 67)" stroke-width="2px" d="M91.25,336.0894488096237L109.5,233.2179729938507L127.75,202.29641872644424L146,181.1205689907074L164.25,165.02473998069763L182.5,153.35396844148636L200.75,144.04941219091415L219,135.9613932967186L237.25,128.6621128320694L255.5,121.65696877241135L273.75,117.32558208703995L292,112.91393029689789L310.25,107.84720259904861L328.5,105.77506738901138L346.75,102.24576848745346L365,100.25384205579758L383.25,96.08281660079956L401.5,94.30481779575348L419.75,90.22740679979324L438,88.70338368415833L456.25,85.40130543708801L474.5,85.42806047201157L492.75,83.20885705947876L511,81.11002314090729L529.25,80.69557356834412L547.5,77.84804928302765L565.75,76.4710943698883L584,75.4417296051979L602.25,75.32141643762589L620.5,73.50325691699982L638.75,73.61022073030472L657,70.61562824249268L675.25,70.34830319881439L693.5,71.17714601755142L711.75,67.74140524864197L730,67.28685128688812L748.25,68.0354853272438L766.5,66.23073148727417L784.75,65.85644263029099L803,64.34576886892319L821.25,63.26289403438568L839.5,63.66399425268173L857.75,61.41803580522537L876,62.22017991542816L894.25,61.845834732055664L912.5,60.4555304646492L930.75,60.014325857162476L949,60.64264672994614L967.25,59.73359513282776L985.5,58.156118273735046" style="fill: none;" fill="none"></path></g><g><path stroke="rgb(0, 153, 136)" stroke-width="2px" d="M91.25,342.6466854214668L109.5,298.657634139061L127.75,277.67639207839966L146,263.5225843191147L164.25,254.91805243492126L182.5,247.06176030635834L200.75,240.98250943422318L219,237.36607360839844L237.25,234.24852061271667L255.5,230.10210978984833L273.75,228.2315667271614L292,225.4881336092949L310.25,223.89815229177475L328.5,222.08996254205704L346.75,220.37527459859848L365,219.87650442123413L383.25,217.943608045578L401.5,217.35122340917587L419.75,216.50948184728622L438,215.449531853199L456.25,214.6389387845993L474.5,213.85955053567886L492.75,213.32957553863525L511,212.70604240894318L529.25,211.8955056667328L547.5,212.76839572191238L565.75,212.70604240894318L584,212.70604240894318L602.25,212.4878339767456L620.5,211.957858979702L638.75,211.42782765626907L657,211.45903247594833L675.25,211.83315235376358L693.5,211.45903247594833L711.75,211.6772409081459L730,210.89785265922546L748.25,211.05376410484314L766.5,211.33432585000992L784.75,211.2096192240715L803,211.30312103033066L821.25,212.20727223157883L839.5,211.86430084705353L857.75,211.58373910188675L876,211.11611741781235L894.25,211.17847073078156L912.5,211.92665416002274L930.75,211.83315235376358L949,212.0825656056404L967.25,211.45903247594833L985.5,212.14491891860962" style="fill: none;" fill="none"></path></g><g><path stroke="rgb(238, 51, 119)" stroke-width="2px" d="M91.25,472.59625616669655L109.5,320.95618146657944L127.75,284.4197874069214L146,263.056708753109L164.25,248.20422846078873L182.5,235.27675884962082L200.75,225.8518894314766L219,216.13293993473053L237.25,208.52617371082306L255.5,201.48092526197433L273.75,197.06927347183228L292,192.042706489563L310.25,185.51881510019302L328.5,180.82643258571625L346.75,176.82923036813736L365,174.22233241796494L383.25,170.15827077627182L401.5,165.6530608534813L419.75,162.1906213760376L438,160.2387993335724L456.25,157.01692986488342L474.5,154.65071457624435L492.75,151.25507819652557L511,148.6214815378189L529.25,145.81406164169312L547.5,143.82213521003723L565.75,142.32486712932587L584,139.59765601158142L602.25,140.60032206773758L620.5,137.0442681312561L638.75,135.44003623723984L657,131.48293840885162L675.25,129.78509205579758L693.5,129.34394377470016L711.75,127.21829849481583L730,126.28254818916321L748.25,124.0098347067833L766.5,123.02057433128357L784.75,121.56341063976288L803,119.59823924303055L821.25,117.76673036813736L839.5,116.88437747955322L857.75,114.67857974767685L876,114.69192910194397L894.25,112.2722037434578L912.5,112.28560942411423L930.75,111.1358751654625L949,109.71881586313248L967.25,108.6493467092514L985.5,106.17616760730743" style="fill: none;" fill="none"></path></g></g></g></g></g></g><g transform="translate(50, 378)" clip-path="url(#clip_1)"><clipPath id="clip_1"><rect width="1095" height="22"></rect></clipPath><g><g><line x1="0" y1="0" x2="0" y2="5" style="visibility: inherit;" fill="rgb(0, 0, 0)" stroke="rgb(204, 204, 204)" stroke-width="1px"></line><line x1="91.25" y1="0" x2="91.25" y2="5" style="visibility: inherit;" fill="rgb(0, 0, 0)" stroke="rgb(204, 204, 204)" stroke-width="1px"></line><line x1="182.5" y1="0" x2="182.5" y2="5" style="visibility: inherit;" fill="rgb(0, 0, 0)" stroke="rgb(204, 204, 204)" stroke-width="1px"></line><line x1="273.75" y1="0" x2="273.75" y2="5" style="visibility: inherit;" fill="rgb(0, 0, 0)" stroke="rgb(204, 204, 204)" stroke-width="1px"></line><line x1="365" y1="0" x2="365" y2="5" style="visibility: inherit;" fill="rgb(0, 0, 0)" stroke="rgb(204, 204, 204)" stroke-width="1px"></line><line x1="456.25" y1="0" x2="456.25" y2="5" style="visibility: inherit;" fill="rgb(0, 0, 0)" stroke="rgb(204, 204, 204)" stroke-width="1px"></line><line x1="547.5" y1="0" x2="547.5" y2="5" style="visibility: inherit;" fill="rgb(0, 0, 0)" stroke="rgb(204, 204, 204)" stroke-width="1px"></line><line x1="638.75" y1="0" x2="638.75" y2="5" style="visibility: inherit;" fill="rgb(0, 0, 0)" stroke="rgb(204, 204, 204)" stroke-width="1px"></line><line x1="730" y1="0" x2="730" y2="5" style="visibility: inherit;" fill="rgb(0, 0, 0)" stroke="rgb(204, 204, 204)" stroke-width="1px"></line><line x1="821.25" y1="0" x2="821.25" y2="5" style="visibility: inherit;" fill="rgb(0, 0, 0)" stroke="rgb(204, 204, 204)" stroke-width="1px"></line><line x1="912.5" y1="0" x2="912.5" y2="5" style="visibility: inherit;" fill="rgb(0, 0, 0)" stroke="rgb(204, 204, 204)" stroke-width="1px"></line><line x1="1003.75" y1="0" x2="1003.75" y2="5" style="visibility: inherit;" fill="rgb(0, 0, 0)" stroke="rgb(204, 204, 204)" stroke-width="1px"></line><line x1="1095" y1="0" x2="1095" y2="5" style="visibility: inherit;" fill="rgb(0, 0, 0)" stroke="rgb(204, 204, 204)" stroke-width="1px"></line></g><g transform="translate(0, 8)"><text x="0" y="0" dx="0em" dy="0.95em" style="text-anchor: middle; visibility: hidden; font-family: Roboto, sans-serif; font-size: 12px; font-weight: 200;" fill="rgb(50, 49, 63)" stroke="none" stroke-width="1px">-5</text><text x="91.25" y="0" dx="0em" dy="0.95em" style="text-anchor: middle; visibility: inherit; font-family: Roboto, sans-serif; font-size: 12px; font-weight: 200;" fill="rgb(50, 49, 63)" stroke="none" stroke-width="1px">0</text><text x="182.5" y="0" dx="0em" dy="0.95em" style="text-anchor: middle; visibility: inherit; font-family: Roboto, sans-serif; font-size: 12px; font-weight: 200;" fill="rgb(50, 49, 63)" stroke="none" stroke-width="1px">5</text><text x="273.75" y="0" dx="0em" dy="0.95em" style="text-anchor: middle; visibility: inherit; font-family: Roboto, sans-serif; font-size: 12px; font-weight: 200;" fill="rgb(50, 49, 63)" stroke="none" stroke-width="1px">10</text><text x="365" y="0" dx="0em" dy="0.95em" style="text-anchor: middle; visibility: inherit; font-family: Roboto, sans-serif; font-size: 12px; font-weight: 200;" fill="rgb(50, 49, 63)" stroke="none" stroke-width="1px">15</text><text x="456.25" y="0" dx="0em" dy="0.95em" style="text-anchor: middle; visibility: inherit; font-family: Roboto, sans-serif; font-size: 12px; font-weight: 200;" fill="rgb(50, 49, 63)" stroke="none" stroke-width="1px">20</text><text x="547.5" y="0" dx="0em" dy="0.95em" style="text-anchor: middle; visibility: inherit; font-family: Roboto, sans-serif; font-size: 12px; font-weight: 200;" fill="rgb(50, 49, 63)" stroke="none" stroke-width="1px">25</text><text x="638.75" y="0" dx="0em" dy="0.95em" style="text-anchor: middle; visibility: inherit; font-family: Roboto, sans-serif; font-size: 12px; font-weight: 200;" fill="rgb(50, 49, 63)" stroke="none" stroke-width="1px">30</text><text x="730" y="0" dx="0em" dy="0.95em" style="text-anchor: middle; visibility: inherit; font-family: Roboto, sans-serif; font-size: 12px; font-weight: 200;" fill="rgb(50, 49, 63)" stroke="none" stroke-width="1px">35</text><text x="821.25" y="0" dx="0em" dy="0.95em" style="text-anchor: middle; visibility: inherit; font-family: Roboto, sans-serif; font-size: 12px; font-weight: 200;" fill="rgb(50, 49, 63)" stroke="none" stroke-width="1px">40</text><text x="912.5" y="0" dx="0em" dy="0.95em" style="text-anchor: middle; visibility: inherit; font-family: Roboto, sans-serif; font-size: 12px; font-weight: 200;" fill="rgb(50, 49, 63)" stroke="none" stroke-width="1px">45</text><text x="1003.75" y="0" dx="0em" dy="0.95em" style="text-anchor: middle; visibility: inherit; font-family: Roboto, sans-serif; font-size: 12px; font-weight: 200;" fill="rgb(50, 49, 63)" stroke="none" stroke-width="1px">50</text><text x="1095" y="0" dx="0em" dy="0.95em" style="text-anchor: middle; visibility: hidden; font-family: Roboto, sans-serif; font-size: 12px; font-weight: 200;" fill="rgb(50, 49, 63)" stroke="none" stroke-width="1px">55</text></g><line x1="0" y1="0" x2="1095" y2="0" fill="rgb(0, 0, 0)" stroke="rgb(204, 204, 204)" stroke-width="1px"></line></g></g></g></g></svg>