<svg viewBox="0 0 800.5 400" xmlns="http://www.w3.org/2000/svg"><g><g><g><g><g><line x1="50" y1="378" x2="45" y2="378" style="visibility: inherit;" fill="rgb(0, 0, 0)" stroke="rgb(204, 204, 204)" stroke-width="1px"></line><line x1="50" y1="352.8" x2="45" y2="352.8" style="visibility: inherit;" fill="rgb(0, 0, 0)" stroke="rgb(204, 204, 204)" stroke-width="1px"></line><line x1="50" y1="327.6" x2="45" y2="327.6" style="visibility: inherit;" fill="rgb(0, 0, 0)" stroke="rgb(204, 204, 204)" stroke-width="1px"></line><line x1="50" y1="302.4" x2="45" y2="302.4" style="visibility: inherit;" fill="rgb(0, 0, 0)" stroke="rgb(204, 204, 204)" stroke-width="1px"></line><line x1="50" y1="277.20000000000005" x2="45" y2="277.20000000000005" style="visibility: inherit;" fill="rgb(0, 0, 0)" stroke="rgb(204, 204, 204)" stroke-width="1px"></line><line x1="50" y1="252.00000000000003" x2="45" y2="252.00000000000003" style="visibility: inherit;" fill="rgb(0, 0, 0)" stroke="rgb(204, 204, 204)" stroke-width="1px"></line><line x1="50" y1="226.79999999999995" x2="45" y2="226.79999999999995" style="visibility: inherit;" fill="rgb(0, 0, 0)" stroke="rgb(204, 204, 204)" stroke-width="1px"></line><line x1="50" y1="201.60000000000005" x2="45" y2="201.60000000000005" style="visibility: inherit;" fill="rgb(0, 0, 0)" stroke="rgb(204, 204, 204)" stroke-width="1px"></line><line x1="50" y1="176.4" x2="45" y2="176.4" style="visibility: inherit;" fill="rgb(0, 0, 0)" stroke="rgb(204, 204, 204)" stroke-width="1px"></line><line x1="50" y1="151.20000000000002" x2="45" y2="151.20000000000002" style="visibility: inherit;" fill="rgb(0, 0, 0)" stroke="rgb(204, 204, 204)" stroke-width="1px"></line><line x1="50" y1="126.00000000000001" x2="45" y2="126.00000000000001" style="visibility: inherit;" fill="rgb(0, 0, 0)" stroke="rgb(204, 204, 204)" stroke-width="1px"></line><line x1="50" y1="100.79999999999998" x2="45" y2="100.79999999999998" style="visibility: inherit;" fill="rgb(0, 0, 0)" stroke="rgb(204, 204, 204)" stroke-width="1px"></line><line x1="50" y1="75.60000000000002" x2="45" y2="75.60000000000002" style="visibility: inherit;" fill="rgb(0, 0, 0)" stroke="rgb(204, 204, 204)" stroke-width="1px"></line><line x1="50" y1="50.39999999999999" x2="45" y2="50.39999999999999" style="visibility: inherit;" fill="rgb(0, 0, 0)" stroke="rgb(204, 204, 204)" stroke-width="1px"></line><line x1="50" y1="25.200000000000035" x2="45" y2="25.200000000000035" style="visibility: inherit;" fill="rgb(0, 0, 0)" stroke="rgb(204, 204, 204)" stroke-width="1px"></line><line x1="50" y1="0" x2="45" y2="0" style="visibility: inherit;" fill="rgb(0, 0, 0)" stroke="rgb(204, 204, 204)" stroke-width="1px"></line></g><g transform="translate(40, 0)"><text x="0" y="378" dx="0em" dy="0.3em" style="text-anchor: end; visibility: hidden; font-family: Roboto, sans-serif; font-size: 12px; font-weight: 200;" fill="rgb(50, 49, 63)" stroke="none" stroke-width="1px">-0.4</text><text x="0" y="352.8" dx="0em" dy="0.3em" style="text-anchor: end; visibility: inherit; font-family: Roboto, sans-serif; font-size: 12px; font-weight: 200;" fill="rgb(50, 49, 63)" stroke="none" stroke-width="1px">-0.2</text><text x="0" y="327.6" dx="0em" dy="0.3em" style="text-anchor: end; visibility: inherit; font-family: Roboto, sans-serif; font-size: 12px; font-weight: 200;" fill="rgb(50, 49, 63)" stroke="none" stroke-width="1px">0</text><text x="0" y="302.4" dx="0em" dy="0.3em" style="text-anchor: end; visibility: inherit; font-family: Roboto, sans-serif; font-size: 12px; font-weight: 200;" fill="rgb(50, 49, 63)" stroke="none" stroke-width="1px">0.2</text><text x="0" y="277.20000000000005" dx="0em" dy="0.3em" style="text-anchor: end; visibility: inherit; font-family: Roboto, sans-serif; font-size: 12px; font-weight: 200;" fill="rgb(50, 49, 63)" stroke="none" stroke-width="1px">0.4</text><text x="0" y="252.00000000000003" dx="0em" dy="0.3em" style="text-anchor: end; visibility: inherit; font-family: Roboto, sans-serif; font-size: 12px; font-weight: 200;" fill="rgb(50, 49, 63)" stroke="none" stroke-width="1px">0.6</text><text x="0" y="226.79999999999995" dx="0em" dy="0.3em" style="text-anchor: end; visibility: inherit; font-family: Roboto, sans-serif; font-size: 12px; font-weight: 200;" fill="rgb(50, 49, 63)" stroke="none" stroke-width="1px">0.8</text><text x="0" y="201.60000000000005" dx="0em" dy="0.3em" style="text-anchor: end; visibility: inherit; font-family: Roboto, sans-serif; font-size: 12px; font-weight: 200;" fill="rgb(50, 49, 63)" stroke="none" stroke-width="1px">1</text><text x="0" y="176.4" dx="0em" dy="0.3em" style="text-anchor: end; visibility: inherit; font-family: Roboto, sans-serif; font-size: 12px; font-weight: 200;" fill="rgb(50, 49, 63)" stroke="none" stroke-width="1px">1.2</text><text x="0" y="151.20000000000002" dx="0em" dy="0.3em" style="text-anchor: end; visibility: inherit; font-family: Roboto, sans-serif; font-size: 12px; font-weight: 200;" fill="rgb(50, 49, 63)" stroke="none" stroke-width="1px">1.4</text><text x="0" y="126.00000000000001" dx="0em" dy="0.3em" style="text-anchor: end; visibility: inherit; font-family: Roboto, sans-serif; font-size: 12px; font-weight: 200;" fill="rgb(50, 49, 63)" stroke="none" stroke-width="1px">1.6</text><text x="0" y="100.79999999999998" dx="0em" dy="0.3em" style="text-anchor: end; visibility: inherit; font-family: Roboto, sans-serif; font-size: 12px; font-weight: 200;" fill="rgb(50, 49, 63)" stroke="none" stroke-width="1px">1.8</text><text x="0" y="75.60000000000002" dx="0em" dy="0.3em" style="text-anchor: end; visibility: inherit; font-family: Roboto, sans-serif; font-size: 12px; font-weight: 200;" fill="rgb(50, 49, 63)" stroke="none" stroke-width="1px">2</text><text x="0" y="50.39999999999999" dx="0em" dy="0.3em" style="text-anchor: end; visibility: inherit; font-family: Roboto, sans-serif; font-size: 12px; font-weight: 200;" fill="rgb(50, 49, 63)" stroke="none" stroke-width="1px">2.2</text><text x="0" y="25.200000000000035" dx="0em" dy="0.3em" style="text-anchor: end; visibility: inherit; font-family: Roboto, sans-serif; font-size: 12px; font-weight: 200;" fill="rgb(50, 49, 63)" stroke="none" stroke-width="1px">2.4</text><text x="0" y="0" dx="0em" dy="0.3em" style="text-anchor: end; visibility: hidden; font-family: Roboto, sans-serif; font-size: 12px; font-weight: 200;" fill="rgb(50, 49, 63)" stroke="none" stroke-width="1px">2.6</text></g><line x1="50" y1="0" x2="50" y2="378" fill="rgb(0, 0, 0)" stroke="rgb(204, 204, 204)" stroke-width="1px"></line></g></g><g transform="translate(50, 0)" clip-path="url(#clip_0)"><clipPath id="clip_0"><rect width="750" height="378"></rect></clipPath><g><g><g><line x1="0" y1="0" x2="0" y2="378" fill="rgb(0, 0, 0)" stroke="rgb(60, 60, 60)" stroke-width="1px" opacity="0.25"></line><line x1="62.541666666666664" y1="0" x2="62.541666666666664" y2="378" fill="rgb(0, 0, 0)" stroke="rgb(60, 60, 60)" stroke-width="1px" opacity="0.25"></line><line x1="125.08333333333333" y1="0" x2="125.08333333333333" y2="378" fill="rgb(0, 0, 0)" stroke="rgb(60, 60, 60)" stroke-width="1px" opacity="0.25"></line><line x1="187.625" y1="0" x2="187.625" y2="378" fill="rgb(0, 0, 0)" stroke="rgb(60, 60, 60)" stroke-width="1px" opacity="0.25"></line><line x1="250.16666666666666" y1="0" x2="250.16666666666666" y2="378" fill="rgb(0, 0, 0)" stroke="rgb(60, 60, 60)" stroke-width="1px" opacity="0.25"></line><line x1="312.70833333333337" y1="0" x2="312.70833333333337" y2="378" fill="rgb(0, 0, 0)" stroke="rgb(60, 60, 60)" stroke-width="1px" opacity="0.25"></line><line x1="375.25" y1="0" x2="375.25" y2="378" fill="rgb(0, 0, 0)" stroke="rgb(60, 60, 60)" stroke-width="1px" opacity="0.25"></line><line x1="437.7916666666667" y1="0" x2="437.7916666666667" y2="378" fill="rgb(0, 0, 0)" stroke="rgb(60, 60, 60)" stroke-width="1px" opacity="0.25"></line><line x1="500.3333333333333" y1="0" x2="500.3333333333333" y2="378" fill="rgb(0, 0, 0)" stroke="rgb(60, 60, 60)" stroke-width="1px" opacity="0.25"></line><line x1="562.875" y1="0" x2="562.875" y2="378" fill="rgb(0, 0, 0)" stroke="rgb(60, 60, 60)" stroke-width="1px" opacity="0.25"></line><line x1="625.4166666666667" y1="0" x2="625.4166666666667" y2="378" fill="rgb(0, 0, 0)" stroke="rgb(60, 60, 60)" stroke-width="1px" opacity="0.25"></line><line x1="687.9583333333333" y1="0" x2="687.9583333333333" y2="378" fill="rgb(0, 0, 0)" stroke="rgb(60, 60, 60)" stroke-width="1px" opacity="0.25"></line><line x1="750.5" y1="0" x2="750.5" y2="378" fill="rgb(0, 0, 0)" stroke="rgb(60, 60, 60)" stroke-width="1px" opacity="0.25"></line></g><g><line x1="0" y1="378" x2="750.5" y2="378" fill="rgb(0, 0, 0)" stroke="rgb(60, 60, 60)" stroke-width="1px" opacity="0.25"></line><line x1="0" y1="352.8" x2="750.5" y2="352.8" fill="rgb(0, 0, 0)" stroke="rgb(60, 60, 60)" stroke-width="1px" opacity="0.25"></line><line x1="0" y1="327.6" x2="750.5" y2="327.6" fill="rgb(0, 0, 0)" stroke="rgb(60, 60, 60)" stroke-width="1px" opacity="0.25"></line><line x1="0" y1="302.4" x2="750.5" y2="302.4" fill="rgb(0, 0, 0)" stroke="rgb(60, 60, 60)" stroke-width="1px" opacity="0.25"></line><line x1="0" y1="277.20000000000005" x2="750.5" y2="277.20000000000005" fill="rgb(0, 0, 0)" stroke="rgb(60, 60, 60)" stroke-width="1px" opacity="0.25"></line><line x1="0" y1="252.00000000000003" x2="750.5" y2="252.00000000000003" fill="rgb(0, 0, 0)" stroke="rgb(60, 60, 60)" stroke-width="1px" opacity="0.25"></line><line x1="0" y1="226.79999999999995" x2="750.5" y2="226.79999999999995" fill="rgb(0, 0, 0)" stroke="rgb(60, 60, 60)" stroke-width="1px" opacity="0.25"></line><line x1="0" y1="201.60000000000005" x2="750.5" y2="201.60000000000005" fill="rgb(0, 0, 0)" stroke="rgb(60, 60, 60)" stroke-width="1px" opacity="0.25"></line><line x1="0" y1="176.4" x2="750.5" y2="176.4" fill="rgb(0, 0, 0)" stroke="rgb(60, 60, 60)" stroke-width="1px" opacity="0.25"></line><line x1="0" y1="151.20000000000002" x2="750.5" y2="151.20000000000002" fill="rgb(0, 0, 0)" stroke="rgb(60, 60, 60)" stroke-width="1px" opacity="0.25"></line><line x1="0" y1="126.00000000000001" x2="750.5" y2="126.00000000000001" fill="rgb(0, 0, 0)" stroke="rgb(60, 60, 60)" stroke-width="1px" opacity="0.25"></line><line x1="0" y1="100.79999999999998" x2="750.5" y2="100.79999999999998" fill="rgb(0, 0, 0)" stroke="rgb(60, 60, 60)" stroke-width="1px" opacity="0.25"></line><line x1="0" y1="75.60000000000002" x2="750.5" y2="75.60000000000002" fill="rgb(0, 0, 0)" stroke="rgb(60, 60, 60)" stroke-width="1px" opacity="0.25"></line><line x1="0" y1="50.39999999999999" x2="750.5" y2="50.39999999999999" fill="rgb(0, 0, 0)" stroke="rgb(60, 60, 60)" stroke-width="1px" opacity="0.25"></line><line x1="0" y1="25.200000000000035" x2="750.5" y2="25.200000000000035" fill="rgb(0, 0, 0)" stroke="rgb(60, 60, 60)" stroke-width="1px" opacity="0.25"></line><line x1="0" y1="0" x2="750.5" y2="0" fill="rgb(0, 0, 0)" stroke="rgb(60, 60, 60)" stroke-width="1px" opacity="0.25"></line></g></g></g><g><g><line x1="0" y1="327.6" x2="750.5" y2="327.6" fill="rgb(0, 0, 0)" stroke="rgb(153, 153, 153)" stroke-width="1.5px"></line></g></g><g><g><line x1="62.541666666666664" y1="0" x2="62.541666666666664" y2="378" fill="rgb(0, 0, 0)" stroke="rgb(153, 153, 153)" stroke-width="1.5px"></line></g></g><g><g><g><g><g><path stroke="rgb(51, 187, 238)" stroke-width="2px" d="M75.05,-10.139879608154285L87.55833333333334,8.273111915588403L100.06666666666666,23.076167678833006L112.575,30.11822805404663L125.08333333333333,35.318250274658226L137.59166666666667,40.008541202545175L150.1,42.86157045364382L162.60833333333335,48.2692943572998L175.11666666666667,48.89732608795168L187.625,54.26990232467651L200.13333333333333,54.2026110649109L212.64166666666665,57.955751037597665L225.15,58.43069515228272L237.65833333333333,59.61174688339234L250.16666666666666,60.18837890625002L262.675,62.68524513244628L275.18333333333334,62.72994575500488L287.69166666666666,62.964654064178475L300.2,64.09205303192138L312.70833333333337,63.85851631164553L325.2166666666667,66.02175006866455L337.725,66.97404155731203L350.23333333333335,67.76149950027467L362.7416666666667,68.44228277206422L375.25,65.02091274261477L387.7583333333334,67.93831930160523L400.26666666666665,67.4175630569458L412.77500000000003,65.93844709396365L425.2833333333333,69.30991945266726L437.7916666666667,67.77952394485474L450.3,66.23212537765504L462.80833333333334,66.85691270828247L475.31666666666666,70.5778790473938L487.825,67.78448066711427L500.3333333333333,70.31493244171143L512.8416666666667,69.55814609527587L525.35,69.6136013031006L537.8583333333333,68.69123039245608L550.3666666666667,70.46318349838258L562.875,68.7810221672058L575.3833333333333,70.29126033782961L587.8916666666667,65.77736864089967L600.4,67.60192308425906L612.9083333333333,69.11828956604005L625.4166666666667,69.16587409973145L637.925,68.63364229202273L650.4333333333334,65.98591146469117L662.9416666666666,66.9166036605835L675.45,67.29133186340333" style="fill: none;" fill="none"></path></g><g><path stroke="rgb(238, 51, 119)" stroke-width="2px" d="M62.541666666666664,26.282536125183103L75.05,75.95629820823672L87.55833333333334,93.78142247200012L100.06666666666666,104.62959966659547L112.575,111.34903750419616L125.08333333333333,116.90170798301699L137.59166666666667,119.90186176300048L150.1,124.28986773490905L162.60833333333335,126.99560723304748L175.11666666666667,129.10808715820315L187.625,132.55386528968813L200.13333333333333,134.32191309928893L212.64166666666665,133.76922354698183L225.15,138.15096602439883L237.65833333333333,136.48128662109374L250.16666666666666,138.235395526886L262.675,137.8782862186432L275.18333333333334,141.10173282623293L287.69166666666666,141.55178818702697L300.2,142.66137299537658L312.70833333333337,145.10418090820312L325.2166666666667,145.10110173225405L337.725,145.41492233276367L350.23333333333335,145.27780137062072L362.7416666666667,145.70890102386474L375.25,144.7440074443817L387.7583333333334,144.59315786361697L400.26666666666665,149.02946934700014L412.77500000000003,146.32571253776553L425.2833333333333,147.99279341697695L437.7916666666667,149.00417504310607L450.3,150.73603878021243L462.80833333333334,148.84778294563296L475.31666666666666,149.831662273407L487.825,151.97625575065615L500.3333333333333,152.75374016761782L512.8416666666667,155.07281026840212L525.35,153.45612273216247L537.8583333333333,152.47335491180422L550.3666666666667,153.9696541786194L562.875,156.68036541938784L575.3833333333333,154.85833439826965L587.8916666666667,155.39370546340942L600.4,156.1019910335541L612.9083333333333,154.63627324104309L625.4166666666667,156.0659872055054L637.925,156.64625415802004L650.4333333333334,156.95837745666506L662.9416666666666,158.69232902526858L675.45,157.97857604026797" style="fill: none;" fill="none"></path></g><g><path stroke="rgb(255, 112, 67)" stroke-width="2px" d="M62.541666666666664,110.7963930130005L75.05,169.58978805541994L87.55833333333334,187.70210180282595L100.06666666666666,198.46173391342163L112.575,206.99994335174566L125.08333333333333,213.05617175102233L137.59166666666667,218.1353325605393L150.1,222.25213823318487L162.60833333333335,225.4721001148224L175.11666666666667,228.61810169219976L187.625,231.15784356594088L200.13333333333333,233.43029043674474L212.64166666666665,236.07090160846712L225.15,237.25529537200927L237.65833333333333,239.07708606719973L250.16666666666666,240.50072429180148L262.675,241.35974678993227L275.18333333333334,242.85684964656835L287.69166666666666,244.01501033306127L300.2,245.21902821063998L312.70833333333337,246.55056903362274L325.2166666666667,247.21793911457064L337.725,247.7682854890824L350.23333333333335,248.7399908065796L362.7416666666667,249.67726192474368L375.25,249.95840570926666L387.7583333333334,250.4377432823181L400.26666666666665,250.96475551128387L412.77500000000003,252.28536901473998L425.2833333333333,252.53616414070132L437.7916666666667,252.98254702091216L450.3,253.54056129455566L462.80833333333334,253.72923216819763L475.31666666666666,254.4111194372177L487.825,254.43573031425476L500.3333333333333,255.00667712688445L512.8416666666667,255.48328099250793L525.35,256.11358830928805L537.8583333333333,256.364405965805L550.3666666666667,256.4022572994232L562.875,256.8813920974731L575.3833333333333,257.50096735954287L587.8916666666667,257.40983126163485L600.4,258.14591202735903L612.9083333333333,257.4400222063065L625.4166666666667,258.7788854598999L637.925,258.5657689332962L650.4333333333334,258.88206789493563L662.9416666666666,258.8813243865967L675.45,259.247866487503" style="fill: none;" fill="none"></path></g><g><path stroke="rgb(0, 153, 136)" stroke-width="2px" d="M62.541666666666664,83.91808590888976L75.05,157.07042942047119L87.55833333333334,174.85357174873351L100.06666666666666,186.80724821090698L112.575,195.30979928970336L125.08333333333333,202.00205776691442L137.59166666666667,206.8602989673615L150.1,211.59254179000854L162.60833333333335,215.4686835765839L175.11666666666667,218.93695471286776L187.625,221.77713403701785L200.13333333333333,224.32636878490453L212.64166666666665,226.61303243637084L225.15,229.13596651554113L237.65833333333333,231.02640781402587L250.16666666666666,232.49586567878725L262.675,234.46437535285955L275.18333333333334,235.84236667156225L287.69166666666666,237.1474265813828L300.2,238.60213444232946L312.70833333333337,240.06836292743685L325.2166666666667,241.26592955589297L337.725,242.44794259071355L350.23333333333335,243.16163549423217L362.7416666666667,244.267217373848L375.25,245.24495337009435L387.7583333333334,246.04659054279333L400.26666666666665,246.73172972202303L412.77500000000003,247.39409801959997L425.2833333333333,248.2344802379608L437.7916666666667,249.16203317642214L450.3,250.03542265892034L462.80833333333334,250.45618078708654L475.31666666666666,250.72145555019384L487.825,251.79341433048253L500.3333333333333,252.4125765323639L512.8416666666667,253.28550038337707L525.35,253.19755611419677L537.8583333333333,253.46247038841247L550.3666666666667,254.40249774456024L562.875,254.74271664619448L575.3833333333333,255.0435671567917L587.8916666666667,255.6211454629898L600.4,256.3163182497025L612.9083333333333,256.56021151542666L625.4166666666667,256.6586249828339L637.925,257.3716269493103L650.4333333333334,257.80166766643526L662.9416666666666,258.1001749992371L675.45,258.0777871370315" style="fill: none;" fill="none"></path></g><g><path stroke="rgb(0, 119, 187)" stroke-width="2px" d="M62.541666666666664,-22.001406097412097L75.05,99.3142961025238L87.55833333333334,128.47355160713198L100.06666666666666,143.83581576347353L112.575,153.76476130485537L125.08333333333333,161.31016931533816L137.59166666666667,167.2396858692169L150.1,172.4531963825226L162.60833333333335,176.74846658706667L175.11666666666667,180.62382731437683L187.625,183.78471407890322L200.13333333333333,186.9710153102875L212.64166666666665,189.56145844459536L225.15,192.07673964500432L237.65833333333333,194.340669965744L250.16666666666666,196.60315833091738L262.675,198.16147670745855L275.18333333333334,200.395756816864L287.69166666666666,202.2695555448532L300.2,203.93449602127075L312.70833333333337,205.74692902565008L325.2166666666667,206.79402158260348L337.725,208.30268261432653L350.23333333333335,209.8510349750519L362.7416666666667,210.9042333126068L375.25,211.85942373275762L387.7583333333334,213.32988045215612L400.26666666666665,214.37878296375274L412.77500000000003,215.30562243461608L425.2833333333333,216.58662722110753L437.7916666666667,217.46220216751098L450.3,218.18260166645055L462.80833333333334,219.61579284667974L475.31666666666666,220.45258519649508L487.825,221.32443509101867L500.3333333333333,221.9120169639588L512.8416666666667,222.8205916643143L525.35,223.48806688785552L537.8583333333333,224.5815648794174L550.3666666666667,224.83736929893496L562.875,225.51684579849245L575.3833333333333,226.49500236511236L587.8916666666667,227.40829346179962L600.4,227.90653417110443L612.9083333333333,228.64385411739354L625.4166666666667,229.0457091093064L637.925,229.83542761802678L650.4333333333334,230.39746735095977L662.9416666666666,230.98135421276098L675.45,231.53865501880648" style="fill: none;" fill="none"></path></g></g></g></g></g></g><g transform="translate(50, 378)" clip-path="url(#clip_1)"><clipPath id="clip_1"><rect width="750" height="22"></rect></clipPath><g><g><line x1="0" y1="0" x2="0" y2="5" style="visibility: inherit;" fill="rgb(0, 0, 0)" stroke="rgb(204, 204, 204)" stroke-width="1px"></line><line x1="62.541666666666664" y1="0" x2="62.541666666666664" y2="5" style="visibility: inherit;" fill="rgb(0, 0, 0)" stroke="rgb(204, 204, 204)" stroke-width="1px"></line><line x1="125.08333333333333" y1="0" x2="125.08333333333333" y2="5" style="visibility: inherit;" fill="rgb(0, 0, 0)" stroke="rgb(204, 204, 204)" stroke-width="1px"></line><line x1="187.625" y1="0" x2="187.625" y2="5" style="visibility: inherit;" fill="rgb(0, 0, 0)" stroke="rgb(204, 204, 204)" stroke-width="1px"></line><line x1="250.16666666666666" y1="0" x2="250.16666666666666" y2="5" style="visibility: inherit;" fill="rgb(0, 0, 0)" stroke="rgb(204, 204, 204)" stroke-width="1px"></line><line x1="312.70833333333337" y1="0" x2="312.70833333333337" y2="5" style="visibility: inherit;" fill="rgb(0, 0, 0)" stroke="rgb(204, 204, 204)" stroke-width="1px"></line><line x1="375.25" y1="0" x2="375.25" y2="5" style="visibility: inherit;" fill="rgb(0, 0, 0)" stroke="rgb(204, 204, 204)" stroke-width="1px"></line><line x1="437.7916666666667" y1="0" x2="437.7916666666667" y2="5" style="visibility: inherit;" fill="rgb(0, 0, 0)" stroke="rgb(204, 204, 204)" stroke-width="1px"></line><line x1="500.3333333333333" y1="0" x2="500.3333333333333" y2="5" style="visibility: inherit;" fill="rgb(0, 0, 0)" stroke="rgb(204, 204, 204)" stroke-width="1px"></line><line x1="562.875" y1="0" x2="562.875" y2="5" style="visibility: inherit;" fill="rgb(0, 0, 0)" stroke="rgb(204, 204, 204)" stroke-width="1px"></line><line x1="625.4166666666667" y1="0" x2="625.4166666666667" y2="5" style="visibility: inherit;" fill="rgb(0, 0, 0)" stroke="rgb(204, 204, 204)" stroke-width="1px"></line><line x1="687.9583333333333" y1="0" x2="687.9583333333333" y2="5" style="visibility: inherit;" fill="rgb(0, 0, 0)" stroke="rgb(204, 204, 204)" stroke-width="1px"></line><line x1="750.5" y1="0" x2="750.5" y2="5" style="visibility: inherit;" fill="rgb(0, 0, 0)" stroke="rgb(204, 204, 204)" stroke-width="1px"></line></g><g transform="translate(0, 8)"><text x="0" y="0" dx="0em" dy="0.95em" style="text-anchor: middle; visibility: hidden; font-family: Roboto, sans-serif; font-size: 12px; font-weight: 200;" fill="rgb(50, 49, 63)" stroke="none" stroke-width="1px">-5</text><text x="62.541666666666664" y="0" dx="0em" dy="0.95em" style="text-anchor: middle; visibility: inherit; font-family: Roboto, sans-serif; font-size: 12px; font-weight: 200;" fill="rgb(50, 49, 63)" stroke="none" stroke-width="1px">0</text><text x="125.08333333333333" y="0" dx="0em" dy="0.95em" style="text-anchor: middle; visibility: inherit; font-family: Roboto, sans-serif; font-size: 12px; font-weight: 200;" fill="rgb(50, 49, 63)" stroke="none" stroke-width="1px">5</text><text x="187.625" y="0" dx="0em" dy="0.95em" style="text-anchor: middle; visibility: inherit; font-family: Roboto, sans-serif; font-size: 12px; font-weight: 200;" fill="rgb(50, 49, 63)" stroke="none" stroke-width="1px">10</text><text x="250.16666666666666" y="0" dx="0em" dy="0.95em" style="text-anchor: middle; visibility: inherit; font-family: Roboto, sans-serif; font-size: 12px; font-weight: 200;" fill="rgb(50, 49, 63)" stroke="none" stroke-width="1px">15</text><text x="312.70833333333337" y="0" dx="0em" dy="0.95em" style="text-anchor: middle; visibility: inherit; font-family: Roboto, sans-serif; font-size: 12px; font-weight: 200;" fill="rgb(50, 49, 63)" stroke="none" stroke-width="1px">20</text><text x="375.25" y="0" dx="0em" dy="0.95em" style="text-anchor: middle; visibility: inherit; font-family: Roboto, sans-serif; font-size: 12px; font-weight: 200;" fill="rgb(50, 49, 63)" stroke="none" stroke-width="1px">25</text><text x="437.7916666666667" y="0" dx="0em" dy="0.95em" style="text-anchor: middle; visibility: inherit; font-family: Roboto, sans-serif; font-size: 12px; font-weight: 200;" fill="rgb(50, 49, 63)" stroke="none" stroke-width="1px">30</text><text x="500.3333333333333" y="0" dx="0em" dy="0.95em" style="text-anchor: middle; visibility: inherit; font-family: Roboto, sans-serif; font-size: 12px; font-weight: 200;" fill="rgb(50, 49, 63)" stroke="none" stroke-width="1px">35</text><text x="562.875" y="0" dx="0em" dy="0.95em" style="text-anchor: middle; visibility: inherit; font-family: Roboto, sans-serif; font-size: 12px; font-weight: 200;" fill="rgb(50, 49, 63)" stroke="none" stroke-width="1px">40</text><text x="625.4166666666667" y="0" dx="0em" dy="0.95em" style="text-anchor: middle; visibility: inherit; font-family: Roboto, sans-serif; font-size: 12px; font-weight: 200;" fill="rgb(50, 49, 63)" stroke="none" stroke-width="1px">45</text><text x="687.9583333333333" y="0" dx="0em" dy="0.95em" style="text-anchor: middle; visibility: inherit; font-family: Roboto, sans-serif; font-size: 12px; font-weight: 200;" fill="rgb(50, 49, 63)" stroke="none" stroke-width="1px">50</text><text x="750.5" y="0" dx="0em" dy="0.95em" style="text-anchor: middle; visibility: hidden; font-family: Roboto, sans-serif; font-size: 12px; font-weight: 200;" fill="rgb(50, 49, 63)" stroke="none" stroke-width="1px">55</text></g><line x1="0" y1="0" x2="750.5" y2="0" fill="rgb(0, 0, 0)" stroke="rgb(204, 204, 204)" stroke-width="1px"></line></g></g></g></g></svg>